<?xml version="1.0" encoding="utf-8"?>
<!-- Generator: Adobe Illustrator 24.1.2, SVG Export Plug-In . SVG Version: 6.00 Build 0)  -->
<svg version="1.1" xmlns="http://www.w3.org/2000/svg" xmlns:xlink="http://www.w3.org/1999/xlink" x="0px" y="0px"
	 viewBox="0 0 1000 327.8" style="enable-background:new 0 0 1000 327.8;" xml:space="preserve">
<style type="text/css">
	.st0{opacity:0.5;}
	.st1{fill:#999999;}
	.st2{opacity:0.29;fill:#999999;}
	.st3{fill:#666666;}
	.st4{fill:#CCCCCC;}
	.st5{opacity:0.29;fill:#CCCCCC;}
	.st6{opacity:0.52;}
	.st7{fill:#FFFFFF;}
	.st8{opacity:0.5;fill:#FFFFFF;}
	.st9{opacity:0.33;fill:#FFFFFF;}
	.st10{opacity:0.4;fill:#FFFFFF;}
</style>
<g id="Shadow">
</g>
<g id="Object" class="st0">
	<g>
		<g>
			<g>
				<rect x="292.3" y="127.9" class="st1" width="40.4" height="160.8"/>
				<rect x="298.9" y="116.3" class="st1" width="27.2" height="67.6"/>
				<rect x="304.9" y="109" class="st1" width="15.1" height="37.5"/>
				<polygon class="st1" points="317.6,128.3 307.3,128.3 307.3,102.7 311,102.7 314.7,102.7 317.6,102.7 				"/>
				<g>
					<polygon class="st1" points="311.8,117.2 310.7,117.2 310.7,91.6 311.1,91.6 311.5,91.6 311.8,91.6 					"/>
					<polygon class="st1" points="314.3,108.3 313.1,108.3 313.1,82.8 313.5,82.8 313.9,82.8 314.3,82.8 					"/>
				</g>
				<rect x="291.2" y="127.4" class="st1" width="42.6" height="1.7"/>
				<rect x="297.9" y="115.5" class="st1" width="29.2" height="1.6"/>
				<rect x="303.8" y="108.3" class="st1" width="16.8" height="1.3"/>
				<rect x="301.4" y="119.1" class="st2" width="1.3" height="7.1"/>
				<rect x="304.9" y="119.1" class="st2" width="1.3" height="7.1"/>
				<rect x="308.4" y="119.1" class="st2" width="1.3" height="7.1"/>
				<rect x="311.9" y="119.1" class="st2" width="1.3" height="7.1"/>
				<rect x="315.4" y="119.1" class="st2" width="1.3" height="7.1"/>
				<rect x="318.9" y="119.1" class="st2" width="1.3" height="7.1"/>
				<rect x="322.4" y="119.1" class="st2" width="1.3" height="7.1"/>
				<rect x="295.8" y="134.3" class="st1" width="3.1" height="8.4"/>
				<rect x="301.9" y="134.3" class="st2" width="3.1" height="8.4"/>
				<rect x="307.9" y="134.3" class="st1" width="3.1" height="8.4"/>
				<rect x="314" y="134.3" class="st1" width="3.1" height="8.4"/>
				<rect x="320" y="134.3" class="st1" width="3.1" height="8.4"/>
				<rect x="326.1" y="134.3" class="st1" width="3.1" height="8.4"/>
				<rect x="295.8" y="147.4" class="st1" width="3.1" height="8.4"/>
				<rect x="301.9" y="147.4" class="st1" width="3.1" height="8.4"/>
				<rect x="307.9" y="147.4" class="st1" width="3.1" height="8.4"/>
				<rect x="314" y="147.4" class="st2" width="3.1" height="8.4"/>
				<rect x="320" y="147.4" class="st1" width="3.1" height="8.4"/>
				<rect x="326.1" y="147.4" class="st1" width="3.1" height="8.4"/>
				<rect x="295.8" y="160.5" class="st1" width="3.1" height="8.4"/>
				<rect x="301.9" y="160.5" class="st1" width="3.1" height="8.4"/>
				<rect x="307.9" y="160.5" class="st1" width="3.1" height="8.4"/>
				<rect x="314" y="160.5" class="st1" width="3.1" height="8.4"/>
				<rect x="320" y="160.5" class="st2" width="3.1" height="8.4"/>
				<rect x="326.1" y="160.5" class="st2" width="3.1" height="8.4"/>
				<rect x="295.8" y="173.6" class="st2" width="3.1" height="8.4"/>
				<rect x="301.9" y="173.6" class="st1" width="3.1" height="8.4"/>
				<rect x="307.9" y="173.6" class="st1" width="3.1" height="8.4"/>
				<rect x="314" y="173.6" class="st1" width="3.1" height="8.4"/>
				<rect x="320" y="173.6" class="st1" width="3.1" height="8.4"/>
				<rect x="326.1" y="173.6" class="st1" width="3.1" height="8.4"/>
				<rect x="295.8" y="186.7" class="st1" width="3.1" height="8.4"/>
				<rect x="301.9" y="186.7" class="st2" width="3.1" height="8.4"/>
				<rect x="307.9" y="186.7" class="st1" width="3.1" height="8.4"/>
				<rect x="314" y="186.7" class="st2" width="3.1" height="8.4"/>
				<rect x="320" y="186.7" class="st1" width="3.1" height="8.4"/>
				<rect x="326.1" y="186.7" class="st1" width="3.1" height="8.4"/>
				<rect x="295.8" y="199.7" class="st1" width="3.1" height="8.4"/>
				<rect x="301.9" y="199.7" class="st1" width="3.1" height="8.4"/>
				<rect x="307.9" y="199.7" class="st1" width="3.1" height="8.4"/>
				<rect x="314" y="199.7" class="st1" width="3.1" height="8.4"/>
				<rect x="320" y="199.7" class="st1" width="3.1" height="8.4"/>
				<rect x="326.1" y="199.7" class="st2" width="3.1" height="8.4"/>
				<rect x="295.8" y="212.8" class="st1" width="3.1" height="8.4"/>
				<rect x="301.9" y="212.8" class="st2" width="3.1" height="8.4"/>
				<rect x="307.9" y="212.8" class="st2" width="3.1" height="8.4"/>
				<rect x="314" y="212.8" class="st1" width="3.1" height="8.4"/>
				<rect x="320" y="212.8" class="st1" width="3.1" height="8.4"/>
				<rect x="326.1" y="212.8" class="st1" width="3.1" height="8.4"/>
				<rect x="295.8" y="225.9" class="st1" width="3.1" height="8.4"/>
				<rect x="301.9" y="225.9" class="st1" width="3.1" height="8.4"/>
				<rect x="307.9" y="225.9" class="st1" width="3.1" height="8.4"/>
				<rect x="314" y="225.9" class="st1" width="3.1" height="8.4"/>
				<rect x="320" y="225.9" class="st2" width="3.1" height="8.4"/>
				<rect x="326.1" y="225.9" class="st1" width="3.1" height="8.4"/>
				<rect x="295.8" y="239" class="st1" width="3.1" height="8.4"/>
				<rect x="301.9" y="239" class="st2" width="3.1" height="8.4"/>
				<rect x="307.9" y="239" class="st1" width="3.1" height="8.4"/>
				<rect x="314" y="239" class="st1" width="3.1" height="8.4"/>
				<rect x="320" y="239" class="st1" width="3.1" height="8.4"/>
				<rect x="326.1" y="239" class="st1" width="3.1" height="8.4"/>
				<rect x="295.8" y="252.1" class="st1" width="3.1" height="8.4"/>
				<rect x="301.9" y="252.1" class="st1" width="3.1" height="8.4"/>
				<rect x="307.9" y="252.1" class="st1" width="3.1" height="8.4"/>
				<rect x="314" y="252.1" class="st2" width="3.1" height="8.4"/>
				<rect x="320" y="252.1" class="st1" width="3.1" height="8.4"/>
				<rect x="326.1" y="252.1" class="st2" width="3.1" height="8.4"/>
				<rect x="295.8" y="265.2" class="st2" width="3.1" height="8.4"/>
				<rect x="301.9" y="265.2" class="st1" width="3.1" height="8.4"/>
				<rect x="307.9" y="265.2" class="st2" width="3.1" height="8.4"/>
				<rect x="314" y="265.2" class="st1" width="3.1" height="8.4"/>
				<rect x="320" y="265.2" class="st1" width="3.1" height="8.4"/>
				<rect x="326.1" y="265.2" class="st1" width="3.1" height="8.4"/>
			</g>
			<g>
				<rect x="174.9" y="134" class="st1" width="64.9" height="135.5"/>
				<rect x="173.1" y="131.6" class="st1" width="68.6" height="3.8"/>
				<rect x="177.1" y="126.7" class="st1" width="60.6" height="18.2"/>
				<rect x="181.8" y="119.3" class="st1" width="24" height="19.9"/>
				<polygon class="st1" points="195.6,124.9 181.8,124.9 181.8,114.4 191.7,114.4 				"/>
				<rect x="187.4" y="105.7" class="st1" width="1.3" height="23.3"/>
				<path class="st1" d="M189.2,104.5c0,0.7-0.5,1.2-1.2,1.2c-0.7,0-1.2-0.5-1.2-1.2c0-0.7,0.5-1.2,1.2-1.2
					C188.7,103.3,189.2,103.9,189.2,104.5z"/>
			</g>
			<polygon class="st1" points="777.7,279.8 706.6,279.8 697.7,80.6 777.7,97.2 			"/>
			<polygon class="st1" points="467.5,166 467.5,99.4 456.4,99.4 456.4,81.6 452.4,81.6 452.4,55.4 430.4,55.4 430.4,36.2 
				428.5,36.2 428.5,55.4 424.2,55.4 424.2,31.4 422.2,31.4 422.2,55.4 408.4,55.4 408.4,99.4 401.2,99.4 401.2,166 395.1,166 
				395.1,287.3 471.8,287.3 471.8,166 			"/>
		</g>
		<rect x="84.2" y="277.3" class="st1" width="849.4" height="20.2"/>
		<polygon class="st3" points="584.1,292.5 546.5,292.5 561.2,217.2 584.1,217.2 		"/>
		<g>
			<rect x="53.7" y="295.5" class="st3" width="891.8" height="31.9"/>
			<polygon class="st3" points="553.3,153.2 553.3,119.8 541.2,119.8 541.2,107.1 534.8,107.1 534.8,96.4 532.5,96.4 532.5,78.1 
				531.9,78.1 531.9,96.4 529.7,96.4 529.7,107.1 523.2,107.1 523.2,119.8 511.2,119.8 511.2,153.2 508.7,153.2 508.7,213.8 
				490.1,213.8 490.1,282.8 508.7,282.8 527.3,282.8 555.7,282.8 555.7,153.2 			"/>
			<polygon class="st3" points="622.7,191.5 564.3,191.5 564.3,192.6 566.9,192.6 566.9,291.4 620.1,291.4 620.1,192.6 622.7,192.6 
							"/>
			<rect x="304.3" y="216.1" class="st3" width="51.8" height="82.3"/>
			<rect x="207.4" y="258.3" class="st3" width="89.1" height="40.2"/>
			<rect x="255.2" y="168.6" class="st3" width="19.6" height="98.6"/>
			<rect x="259.5" y="142.3" class="st3" width="1" height="53.6"/>
			<rect x="262.8" y="146.4" class="st3" width="1" height="53.6"/>
			<rect x="256.7" y="162.5" class="st3" width="12" height="13.2"/>
			<rect x="293" y="230.9" class="st3" width="34.1" height="67.6"/>
			<rect x="364.6" y="159.3" class="st3" width="63.9" height="139.1"/>
			<rect x="370.9" y="154.5" class="st3" width="51.4" height="23.2"/>
			<rect x="359.6" y="162.2" class="st3" width="73.8" height="1.6"/>
			<rect x="353" y="228.2" class="st3" width="30.1" height="70.3"/>
			<rect x="137.3" y="225.5" class="st3" width="34.6" height="72.9"/>
			<g>
				<rect x="148.5" y="205.7" class="st3" width="68.9" height="92.8"/>
				<rect x="144.4" y="202.1" class="st3" width="74.7" height="3.6"/>
				<rect x="151.5" y="192.5" class="st3" width="30.3" height="18.8"/>
				<rect x="191.7" y="192.5" class="st3" width="5.1" height="11.4"/>
				<rect x="201.8" y="192.5" class="st3" width="5.6" height="11.4"/>
			</g>
			<rect x="118.5" y="270.3" class="st3" width="36.1" height="28.2"/>
			<rect x="104.8" y="258.3" class="st3" width="17.1" height="40.2"/>
			<rect x="84.2" y="284.4" class="st3" width="29.2" height="14.1"/>
			<rect x="422.2" y="267.2" class="st3" width="359.8" height="31.3"/>
			<path class="st3" d="M753.3,180.7c-2.3,0-4.1,1.7-4.3,4l-5.1-0.2c0-0.5,0-1,0-1.5c0-6.3-1.1-12.4-3.2-18.2l4.2-1.6
				c0.7,1.5,2.2,2.6,4,2.6c2.4,0,4.3-1.9,4.3-4.3c0-2.4-1.9-4.3-4.3-4.3s-4.3,1.9-4.3,4.3c0,0.4,0.1,0.9,0.2,1.3l-4.2,1.6
				c-2.4-6.5-6.1-12.4-10.9-17.6l3.3-3.1c0.8,0.7,1.8,1.2,3,1.2c2.4,0,4.3-1.9,4.3-4.3s-1.9-4.3-4.3-4.3s-4.3,1.9-4.3,4.3
				c0,1.1,0.4,2,1,2.8l-3.3,3.1c-0.3-0.4-0.7-0.7-1-1.1c-5-5-10.8-8.9-17.2-11.5l1.8-4.4c0.4,0.1,0.9,0.2,1.3,0.2
				c2.4,0,4.3-1.9,4.3-4.3c0-2.4-1.9-4.3-4.3-4.3s-4.3,1.9-4.3,4.3c0,1.8,1.1,3.3,2.6,4l-1.8,4.4c-5.7-2.3-11.8-3.6-18.1-3.8
				l0.2-6.1c0,0,0.1,0,0.1,0c2.4,0,4.3-1.9,4.3-4.3s-1.9-4.3-4.3-4.3s-4.3,1.9-4.3,4.3c0,2.2,1.6,4,3.7,4.3l-0.2,6.1
				c-0.5,0-1,0-1.5,0c-6,0-11.9,1-17.5,2.9l-1.7-4.9c1.6-0.6,2.7-2.2,2.7-4c0-2.4-1.9-4.3-4.3-4.3s-4.3,1.9-4.3,4.3
				c0,2.4,1.9,4.3,4.3,4.3c0.4,0,0.8-0.1,1.2-0.2l1.7,4.9c-6.7,2.4-13,6.2-18.3,11.2l-3.2-3.4c0.7-0.8,1.1-1.8,1.1-2.9
				c0-2.4-1.9-4.3-4.3-4.3s-4.3,1.9-4.3,4.3c0,2.4,1.9,4.3,4.3,4.3c1.1,0,2.1-0.4,2.8-1.1l3.2,3.4c-0.4,0.3-0.7,0.7-1.1,1
				c-4.5,4.5-8,9.6-10.6,15.1l-4-1.9c0.1-0.4,0.2-0.9,0.2-1.4c0-2.4-1.9-4.3-4.3-4.3c-2.4,0-4.3,1.9-4.3,4.3c0,2.4,1.9,4.3,4.3,4.3
				c1.7,0,3.2-1,3.9-2.5l4,1.8c-2.9,6.3-4.5,13.1-4.7,20.2l-5.2-0.2c-0.1-2.3-2-4.2-4.3-4.2c-2.4,0-4.3,1.9-4.3,4.3
				c0,2.4,1.9,4.3,4.3,4.3c2.3,0,4.1-1.7,4.3-4l5.2,0.2c0,0.5,0,1,0,1.5c0,6.3,1.1,12.4,3.2,18.2l-4.2,1.6c-0.7-1.5-2.2-2.6-4-2.6
				c-2.4,0-4.3,1.9-4.3,4.3c0,2.4,1.9,4.3,4.3,4.3s4.3-1.9,4.3-4.3c0-0.4-0.1-0.9-0.2-1.3l4.2-1.6c2.4,6.5,6.1,12.4,10.9,17.6
				l-3.3,3.1c-0.8-0.7-1.8-1.2-3-1.2c-2.4,0-4.3,1.9-4.3,4.3c0,2.4,1.9,4.3,4.3,4.3s4.3-1.9,4.3-4.3c0-1.1-0.4-2-1-2.8l3.3-3.1
				c0.3,0.4,0.7,0.7,1,1.1c3.4,3.4,7.1,6.2,11.2,8.6l-26.1,48.1h-4.7v1.4h-2.3v2.7h119.1v-2.7H748v-1.4h-4.7l-26.1-48.1
				c3.5-2,6.7-4.4,9.7-7.2l4.2,4.5c-0.9,0.8-1.5,2-1.5,3.3c0,2.4,1.9,4.3,4.3,4.3c2.4,0,4.3-1.9,4.3-4.3c0-2.4-1.9-4.3-4.3-4.3
				c-0.9,0-1.8,0.3-2.5,0.8l-4.3-4.5c0.4-0.3,0.7-0.7,1.1-1c4.5-4.5,8-9.6,10.6-15.1l4.7,2.2c-0.1,0.3-0.1,0.7-0.1,1.1
				c0,2.4,1.9,4.3,4.3,4.3s4.3-1.9,4.3-4.3c0-2.4-1.9-4.3-4.3-4.3c-1.9,0-3.4,1.2-4,2.8l-4.6-2.1c2.9-6.3,4.5-13.1,4.7-20.2l5.1,0.2
				c0.1,2.3,2,4.2,4.3,4.2c2.4,0,4.3-1.9,4.3-4.3C757.7,182.6,755.7,180.7,753.3,180.7z M742.5,183c0,0.5,0,1,0,1.4l-14.9-0.5
				c0-0.3,0-0.6,0-1c0-4.4-0.8-8.6-2.2-12.5l14-5.2C741.5,170.9,742.5,176.9,742.5,183z M726.9,183.9l-33.3-1.1c0-0.2,0-0.4-0.1-0.6
				l31.2-11.5c1.4,3.8,2.1,8,2.1,12.3C726.9,183.3,726.9,183.6,726.9,183.9z M654.5,182l33.3,1.1c0,0.2,0,0.4,0.1,0.6l-31.2,11.5
				c-1.4-3.8-2.1-8-2.1-12.3C654.5,182.7,654.5,182.4,654.5,182z M693,181.2l24.3-22.8c3.2,3.4,5.7,7.4,7.3,11.8l-31.2,11.5
				C693.2,181.5,693.1,181.4,693,181.2z M692.6,180.8c-0.2-0.2-0.4-0.3-0.6-0.4l12.6-30.8c4.7,2,8.8,4.9,12.3,8.5L692.6,180.8z
				 M691.6,180.2c-0.2-0.1-0.4-0.1-0.5-0.1l1.1-33.3c4.3,0.2,8.3,1.1,12.1,2.6L691.6,180.2z M690.5,180.1c-0.2,0-0.4,0-0.6,0.1
				l-11.1-31.4c3.7-1.3,7.7-2,11.8-2c0.3,0,0.6,0,0.9,0L690.5,180.1z M689.5,180.3c-0.2,0.1-0.4,0.2-0.6,0.4l-22.8-24.3
				c3.5-3.3,7.7-5.8,12.3-7.5L689.5,180.3z M688.5,181c-0.1,0.2-0.3,0.3-0.4,0.5l-30.2-14c1.9-4.1,4.6-7.8,7.8-10.8L688.5,181z
				 M688,182c-0.1,0.2-0.1,0.4-0.2,0.7l-33.3-1.1c0.2-4.8,1.3-9.4,3.2-13.5L688,182z M688.1,184.2c0.1,0.2,0.2,0.3,0.3,0.5l-0.2,0.4
				l-24,22.5c-3.1-3.4-5.7-7.4-7.3-11.8L688.1,184.2z M687.4,186.4l-15.1,27.8c-2.9-1.7-5.6-3.8-7.9-6.3L687.4,186.4z M689.1,185.4
				c0.1,0.1,0.2,0.1,0.3,0.2l-12.6,30.8c-1.2-0.5-2.4-1.1-3.5-1.7L689.1,185.4z M689.8,185.8c0.2,0.1,0.4,0.1,0.5,0.1l-1.1,33.3
				c-4.3-0.2-8.3-1.1-12.1-2.6L689.8,185.8z M690.7,219.2c-0.3,0-0.6,0-0.9,0l1.1-33.3c0.2,0,0.4,0,0.6-0.1l11.1,31.4
				C698.8,218.5,694.8,219.2,690.7,219.2z M691.9,185.6c0.2-0.1,0.3-0.2,0.5-0.3l15.9,29.3c-1.7,0.9-3.4,1.7-5.3,2.4L691.9,185.6z
				 M694.6,187.5l20.7,22.1c-1.9,1.8-4,3.3-6.2,4.6L694.6,187.5z M693.6,185.8l-0.6-1.1c0.1-0.1,0.1-0.2,0.2-0.3l30.2,14
				c-1.9,4.1-4.6,7.8-7.8,10.8L693.6,185.8z M693.4,184c0.1-0.2,0.1-0.4,0.2-0.7l33.3,1.1c-0.2,4.8-1.3,9.4-3.2,13.5L693.4,184z
				 M676.4,217l-5.7,13.8c-1.7-0.7-3.4-1.5-5.1-2.4l7.1-13.1C674,215.9,675.2,216.5,676.4,217z M676.9,217.2c3.8,1.6,8,2.5,12.4,2.6
				l-0.5,14.9c-6.1-0.2-12-1.5-17.6-3.7L676.9,217.2z M689.7,219.9c0.3,0,0.6,0,1,0c4.2,0,8.3-0.7,12-2l5,14.1
				c-5.4,1.9-11.1,2.8-17,2.8c-0.5,0-1,0-1.4,0L689.7,219.9z M703.2,217.7c1.9-0.7,3.7-1.5,5.4-2.4l7.1,13.1
				c-2.4,1.3-4.9,2.5-7.5,3.4L703.2,217.7z M739.3,164.8l-14,5.2c-1.7-4.5-4.3-8.6-7.5-12.1l10.9-10.2
				C733.4,152.7,736.9,158.5,739.3,164.8z M727.4,146.3c0.3,0.3,0.7,0.7,1,1l-10.9,10.2c-3.5-3.7-7.8-6.7-12.5-8.7l5.7-13.8
				C716.8,137.7,722.5,141.4,727.4,146.3z M710.2,134.9l-5.7,13.8c-3.8-1.6-8-2.5-12.4-2.6l0.5-14.9
				C698.7,131.4,704.6,132.7,710.2,134.9z M690.7,131.1c0.5,0,1,0,1.4,0l-0.5,14.9c-0.3,0-0.6,0-1,0c-4.2,0-8.3,0.7-12,2l-5-14.1
				C679.1,132.1,684.8,131.1,690.7,131.1z M673.2,134.1l5,14.1c-4.7,1.7-9,4.3-12.6,7.6L655.4,145
				C660.6,140.1,666.7,136.5,673.2,134.1z M654,146.3c0.3-0.3,0.7-0.7,1-1l10.2,10.9c-3.3,3.1-6,6.9-8,11.1l-13.6-6.3
				C646.2,155.6,649.7,150.7,654,146.3z M643.5,161.5l13.6,6.3c-1.9,4.2-3.1,8.9-3.3,13.8l-14.9-0.5
				C639.1,174.2,640.7,167.6,643.5,161.5z M638.8,183c0-0.5,0-1,0-1.4l14.9,0.5c0,0.3,0,0.6,0,1c0,4.4,0.8,8.6,2.2,12.5l-14,5.2
				C639.9,195.1,638.8,189.1,638.8,183z M642.1,201.1l14-5.2c1.7,4.5,4.3,8.6,7.5,12.1l-10.9,10.2
				C648,213.2,644.4,207.4,642.1,201.1z M654,219.6c-0.3-0.3-0.7-0.7-1-1l10.9-10.2c2.4,2.5,5.1,4.7,8.1,6.4l-7.1,13.2
				C660.9,225.7,657.3,222.9,654,219.6z M742.2,277.3h-103l25.8-47.6c1.7,0.9,3.4,1.8,5.2,2.5l-1.8,4.4c-0.4-0.1-0.9-0.2-1.3-0.2
				c-2.4,0-4.3,1.9-4.3,4.3c0,2.4,1.9,4.3,4.3,4.3s4.3-1.9,4.3-4.3c0-1.8-1.1-3.3-2.6-4l1.8-4.4c5.7,2.3,11.8,3.6,18.1,3.8l-0.1,4.5
				c-2.3,0.1-4.2,2-4.2,4.3c0,2.4,1.9,4.3,4.3,4.3s4.3-1.9,4.3-4.3c0-2.3-1.7-4.1-3.9-4.3l0.1-4.5c0.5,0,1,0,1.5,0
				c6,0,11.9-1,17.5-2.9l1.6,4.4c-1.5,0.7-2.5,2.2-2.5,3.9c0,2.4,1.9,4.3,4.3,4.3c2.4,0,4.3-1.9,4.3-4.3c0-2.4-1.9-4.3-4.3-4.3
				c-0.5,0-1,0.1-1.4,0.2l-1.5-4.4c2.7-1,5.3-2.1,7.7-3.5L742.2,277.3z M716.5,228l-7.1-13.2c2.3-1.3,4.4-2.9,6.4-4.7L726,221
				C723.1,223.7,719.9,226,716.5,228z M727.4,219.6c-0.3,0.3-0.7,0.7-1,1l-10.2-10.9c3.3-3.1,6-6.9,8-11.1l13.6,6.3
				C735.2,210.3,731.7,215.3,727.4,219.6z M737.9,204.5l-13.6-6.3c1.9-4.2,3.1-8.9,3.3-13.8l14.9,0.5
				C742.3,191.8,740.7,198.4,737.9,204.5z"/>
			<rect x="763.8" y="217" class="st3" width="55.6" height="81.4"/>
			<rect x="811.2" y="248.7" class="st3" width="55.6" height="49.3"/>
			<rect x="595.7" y="241.5" class="st3" width="31.2" height="41.4"/>
			<rect x="791.6" y="139.6" class="st3" width="39.3" height="158.8"/>
			<polygon class="st3" points="895.6,298.5 843.7,298.5 843.7,205.7 883,205.7 			"/>
			<rect x="872.9" y="277.3" class="st3" width="45.4" height="21.2"/>
			<rect x="820.7" y="106.4" class="st3" width="1.4" height="43.2"/>
			<rect x="825.3" y="115.7" class="st3" width="1.4" height="43.2"/>
			<rect x="816.5" y="121.6" class="st3" width="1.4" height="43.2"/>
			<rect x="845.8" y="198.2" class="st3" width="18.6" height="14.6"/>
			<rect x="847.8" y="193" class="st3" width="14.5" height="8.2"/>
			<rect x="871.7" y="202.5" class="st3" width="3.6" height="5.9"/>
			<rect x="876.5" y="197.1" class="st3" width="5.1" height="11.3"/>
		</g>
		<g>
			<g>
				<rect x="595.6" y="175.4" class="st4" width="47.1" height="151.9"/>
				<rect x="592" y="176.3" class="st4" width="54.2" height="1.5"/>
				<rect x="593.5" y="197.7" class="st4" width="51.2" height="1.5"/>
				<rect x="593.5" y="218.3" class="st4" width="51.2" height="1.5"/>
				<rect x="593.5" y="239" class="st4" width="51.2" height="1.5"/>
				<rect x="593.5" y="259.7" class="st4" width="51.2" height="1.5"/>
				<rect x="593.5" y="280.3" class="st4" width="51.2" height="1.5"/>
				<rect x="593.5" y="301" class="st4" width="51.2" height="1.5"/>
				<rect x="590.2" y="172.1" class="st4" width="57.7" height="4.2"/>
				<rect x="599.8" y="182.9" class="st5" width="4.9" height="12.1"/>
				<rect x="610.7" y="182.9" class="st4" width="4.9" height="12.1"/>
				<rect x="621.7" y="182.9" class="st4" width="4.9" height="12.1"/>
				<rect x="632.6" y="182.9" class="st4" width="4.9" height="12.1"/>
				<rect x="599.8" y="202.7" class="st4" width="4.9" height="12.1"/>
				<rect x="610.7" y="202.7" class="st5" width="4.9" height="12.1"/>
				<rect x="621.7" y="202.7" class="st4" width="4.9" height="12.1"/>
				<rect x="632.6" y="202.7" class="st4" width="4.9" height="12.1"/>
				<rect x="599.8" y="223.4" class="st4" width="4.9" height="12.1"/>
				<rect x="610.7" y="223.4" class="st4" width="4.9" height="12.1"/>
				<rect x="621.7" y="223.4" class="st4" width="4.9" height="12.1"/>
				<rect x="632.6" y="223.4" class="st5" width="4.9" height="12.1"/>
				<rect x="599.8" y="244" class="st4" width="4.9" height="12.1"/>
				<rect x="610.7" y="244" class="st5" width="4.9" height="12.1"/>
				<rect x="621.7" y="244" class="st5" width="4.9" height="12.1"/>
				<rect x="632.6" y="244" class="st4" width="4.9" height="12.1"/>
				<rect x="599.8" y="264.7" class="st5" width="4.9" height="12.1"/>
				<rect x="610.7" y="264.7" class="st4" width="4.9" height="12.1"/>
				<rect x="621.7" y="264.7" class="st4" width="4.9" height="12.1"/>
				<rect x="632.6" y="264.7" class="st4" width="4.9" height="12.1"/>
				<rect x="599.8" y="285.4" class="st4" width="4.9" height="12.1"/>
				<rect x="610.7" y="285.4" class="st4" width="4.9" height="12.1"/>
				<rect x="621.7" y="285.4" class="st5" width="4.9" height="12.1"/>
				<rect x="632.6" y="285.4" class="st4" width="4.9" height="12.1"/>
				<rect x="599.8" y="306" class="st4" width="4.9" height="12.1"/>
				<rect x="610.7" y="306" class="st5" width="4.9" height="12.1"/>
				<rect x="621.7" y="306" class="st4" width="4.9" height="12.1"/>
				<rect x="632.6" y="306" class="st5" width="4.9" height="12.1"/>
				<rect x="598.5" y="166.4" class="st4" width="16" height="7.9"/>
				<rect x="597.4" y="166.1" class="st4" width="18.2" height="1.3"/>
			</g>
			<g>
				<polygon class="st4" points="528,327.3 465.2,327.3 465.2,183 528,167.7 				"/>
				<rect x="462.5" y="180.5" class="st4" width="5.5" height="146.8"/>
				<rect x="478.2" y="176.3" class="st4" width="5.5" height="151"/>
				<rect x="493.9" y="172" class="st4" width="5.5" height="155.3"/>
				<rect x="509.6" y="168.5" class="st4" width="5.5" height="158.8"/>
				<rect x="525.3" y="164.8" class="st4" width="5.5" height="162.5"/>
				<rect x="469.4" y="192.8" class="st5" width="7.3" height="11.2"/>
				<rect x="485.1" y="192.8" class="st5" width="7.3" height="11.2"/>
				<rect x="500.8" y="192.8" class="st4" width="7.3" height="11.2"/>
				<rect x="516.5" y="192.8" class="st5" width="7.3" height="11.2"/>
				<rect x="469.4" y="212.2" class="st4" width="7.3" height="11.2"/>
				<rect x="485.1" y="212.2" class="st4" width="7.3" height="11.2"/>
				<rect x="500.8" y="212.2" class="st5" width="7.3" height="11.2"/>
				<rect x="516.5" y="212.2" class="st5" width="7.3" height="11.2"/>
				<rect x="469.4" y="231.6" class="st5" width="7.3" height="11.2"/>
				<rect x="485.1" y="231.6" class="st5" width="7.3" height="11.2"/>
				<rect x="500.8" y="231.6" class="st5" width="7.3" height="11.2"/>
				<rect x="516.5" y="231.6" class="st4" width="7.3" height="11.2"/>
				<rect x="469.4" y="251.1" class="st5" width="7.3" height="11.2"/>
				<rect x="485.1" y="251.1" class="st4" width="7.3" height="11.2"/>
				<rect x="500.8" y="251.1" class="st5" width="7.3" height="11.2"/>
				<rect x="516.5" y="251.1" class="st5" width="7.3" height="11.2"/>
				<rect x="469.4" y="270.5" class="st5" width="7.3" height="11.2"/>
				<rect x="485.1" y="270.5" class="st5" width="7.3" height="11.2"/>
				<rect x="500.8" y="270.5" class="st4" width="7.3" height="11.2"/>
				<rect x="516.5" y="270.5" class="st5" width="7.3" height="11.2"/>
				<rect x="469.4" y="289.9" class="st4" width="7.3" height="11.2"/>
				<rect x="485.1" y="289.9" class="st4" width="7.3" height="11.2"/>
				<rect x="500.8" y="289.9" class="st5" width="7.3" height="11.2"/>
				<rect x="516.5" y="289.9" class="st5" width="7.3" height="11.2"/>
				<rect x="469.4" y="309.3" class="st5" width="7.3" height="11.2"/>
				<rect x="485.1" y="309.3" class="st4" width="7.3" height="11.2"/>
				<rect x="500.8" y="309.3" class="st5" width="7.3" height="11.2"/>
				<rect x="516.5" y="309.3" class="st4" width="7.3" height="11.2"/>
			</g>
			<polygon class="st4" points="286.2,189.9 286.2,191.4 284.7,191.4 284.7,195.7 311,195.7 311,327.3 267.9,327.3 267.9,202.6 
				267.9,195.7 267.9,191.4 266.3,191.4 266.3,189.9 			"/>
			<rect x="359.6" y="249.7" class="st4" width="36.9" height="77.6"/>
			<g>
				<rect x="198.7" y="231.9" class="st4" width="30" height="95.4"/>
				<rect x="222.8" y="251.8" class="st4" width="32.7" height="75.5"/>
				<rect x="209.5" y="228.1" class="st4" width="13.3" height="11.4"/>
				<rect x="225" y="250.6" class="st4" width="34.9" height="2.8"/>
			</g>
			<rect x="252" y="284.2" class="st4" width="36.7" height="43.1"/>
			<rect x="133.5" y="249.1" class="st4" width="29.8" height="78.2"/>
			<rect x="107.6" y="288.1" class="st4" width="39.2" height="39.2"/>
			<rect x="64.4" y="281.7" class="st4" width="24.5" height="45.6"/>
			<rect x="84.2" y="313" class="st4" width="58" height="14.3"/>
			<rect x="42.2" y="308.4" class="st4" width="29.7" height="18.9"/>
			<rect x="163.3" y="298.5" class="st4" width="46.2" height="28.9"/>
			<rect x="298.9" y="314.9" class="st4" width="72" height="12.4"/>
			<rect x="426.5" y="314.9" class="st4" width="72" height="12.4"/>
			<polygon class="st4" points="368.1,278.4 340.7,278.4 329.1,321.1 368.1,321.1 			"/>
			<rect x="380.7" y="216.2" class="st4" width="0.8" height="47.4"/>
			<rect x="384.5" y="232.3" class="st4" width="1" height="28"/>
			<rect x="379.1" y="237.2" class="st4" width="13.8" height="13.8"/>
			<rect x="376.7" y="236.1" class="st4" width="18.3" height="1.2"/>
			<rect x="389.8" y="287.3" class="st4" width="44.7" height="40"/>
			<rect x="426" y="243.2" class="st4" width="28.7" height="77.2"/>
			<rect x="538.2" y="257.7" class="st4" width="45.9" height="69.6"/>
			<rect x="523.8" y="301.7" class="st4" width="52.3" height="25.6"/>
			<rect x="581.6" y="318.1" class="st4" width="34" height="9.2"/>
			<rect x="634" y="301.7" class="st4" width="55.3" height="25.6"/>
			<g>
				
					<rect x="656.1" y="234.6" transform="matrix(-1 -1.224647e-16 1.224647e-16 -1 1381.0188 561.8898)" class="st4" width="68.9" height="92.8"/>
				
					<rect x="654.3" y="231" transform="matrix(-1 -1.224647e-16 1.224647e-16 -1 1383.2576 465.5772)" class="st4" width="74.7" height="3.6"/>
				
					<rect x="691.6" y="221.4" transform="matrix(-1 -1.224647e-16 1.224647e-16 -1 1413.5223 461.5112)" class="st4" width="30.3" height="18.8"/>
				
					<rect x="676.7" y="221.4" transform="matrix(-1 -1.224647e-16 1.224647e-16 -1 1358.4019 454.1418)" class="st4" width="5.1" height="11.4"/>
				
					<rect x="666" y="221.4" transform="matrix(-1 -1.224647e-16 1.224647e-16 -1 1337.5638 454.1418)" class="st4" width="5.6" height="11.4"/>
			</g>
			<g>
				
					<rect x="772.3" y="191.9" transform="matrix(-1 -1.224647e-16 1.224647e-16 -1 1599.0825 519.1805)" class="st4" width="54.5" height="135.5"/>
				
					<rect x="770.7" y="189.5" transform="matrix(-1 -1.224647e-16 1.224647e-16 -1 1599.0825 382.8868)" class="st4" width="57.6" height="3.8"/>
				
					<rect x="774.1" y="184.6" transform="matrix(-1 -1.224647e-16 1.224647e-16 -1 1599.0825 387.4547)" class="st4" width="50.8" height="18.2"/>
				
					<rect x="800.9" y="177.2" transform="matrix(-1 -1.224647e-16 1.224647e-16 -1 1622.0109 374.2473)" class="st4" width="20.1" height="19.9"/>
				<polygon class="st4" points="809.4,182.8 821.1,182.8 821.1,172.3 812.7,172.3 				"/>
				
					<rect x="815.2" y="163.6" transform="matrix(-1 -1.224647e-16 1.224647e-16 -1 1631.6232 350.5757)" class="st4" width="1.1" height="23.3"/>
				<path class="st4" d="M814.8,162.4c0,0.7,0.5,1.2,1,1.2s1-0.5,1-1.2c0-0.7-0.5-1.2-1-1.2S814.8,161.8,814.8,162.4z"/>
			</g>
			<rect x="819.3" y="271.4" class="st4" width="24.4" height="55.9"/>
			<rect x="749.8" y="244.1" class="st4" width="27.8" height="83.2"/>
			<polygon class="st4" points="763.8,327.3 724.6,327.3 724.6,282.8 757.7,297.5 			"/>
			<rect x="835.7" y="303.2" class="st4" width="59.9" height="24.2"/>
			<rect x="873.5" y="230.9" class="st4" width="34.8" height="96.5"/>
			<rect x="900.1" y="309.3" class="st4" width="57.6" height="18"/>
			<rect x="871.7" y="229.1" class="st4" width="38.1" height="3.2"/>
			<rect x="902.8" y="215.5" class="st4" width="0.8" height="19.4"/>
			<rect x="897.7" y="217.9" class="st4" width="0.8" height="15.6"/>
			<polygon class="st4" points="921.1,267.2 905.6,267.2 905.6,311.4 927.7,311.4 			"/>
		</g>
	</g>
	<g>
		<g class="st6">
			<rect x="201.8" y="236.8" class="st7" width="2.3" height="2.3"/>
			<rect x="206.4" y="236.8" class="st7" width="2.3" height="2.3"/>
			<rect x="201.8" y="242.1" class="st7" width="2.3" height="2.3"/>
			<rect x="206.4" y="242.1" class="st7" width="2.3" height="2.3"/>
			<rect x="201.8" y="247.3" class="st7" width="2.3" height="2.3"/>
			<rect x="211.5" y="236.8" class="st7" width="2.3" height="2.3"/>
		</g>
		<rect x="368.1" y="168.5" class="st8" width="1.5" height="8.6"/>
		<rect x="373.4" y="168.5" class="st8" width="1.5" height="8.6"/>
		<rect x="378.7" y="168.5" class="st8" width="1.5" height="8.6"/>
		<rect x="384.1" y="168.5" class="st8" width="1.5" height="8.6"/>
		<rect x="389.4" y="168.5" class="st8" width="1.5" height="8.6"/>
		<rect x="394.7" y="168.5" class="st8" width="1.5" height="8.6"/>
		<rect x="400.1" y="168.5" class="st8" width="1.5" height="8.6"/>
		<rect x="405.4" y="168.5" class="st8" width="1.5" height="8.6"/>
		<rect x="410.8" y="168.5" class="st8" width="1.5" height="8.6"/>
		<rect x="416.1" y="168.5" class="st8" width="1.5" height="8.6"/>
		<rect x="421.4" y="168.5" class="st8" width="1.5" height="8.6"/>
		<rect x="368.1" y="180.5" class="st8" width="1.5" height="8.6"/>
		<rect x="373.4" y="180.5" class="st8" width="1.5" height="8.6"/>
		<rect x="378.7" y="180.5" class="st8" width="1.5" height="8.6"/>
		<rect x="384.1" y="180.5" class="st8" width="1.5" height="8.6"/>
		<rect x="389.4" y="180.5" class="st8" width="1.5" height="8.6"/>
		<rect x="394.7" y="180.5" class="st8" width="1.5" height="8.6"/>
		<rect x="400.1" y="180.5" class="st8" width="1.5" height="8.6"/>
		<rect x="405.4" y="180.5" class="st8" width="1.5" height="8.6"/>
		<rect x="410.8" y="180.5" class="st8" width="1.5" height="8.6"/>
		<rect x="416.1" y="180.5" class="st8" width="1.5" height="8.6"/>
		<rect x="421.4" y="180.5" class="st8" width="1.5" height="8.6"/>
		<rect x="368.1" y="192.4" class="st8" width="1.5" height="8.6"/>
		<rect x="373.4" y="192.4" class="st8" width="1.5" height="8.6"/>
		<rect x="378.7" y="192.4" class="st8" width="1.5" height="8.6"/>
		<rect x="384.1" y="192.4" class="st8" width="1.5" height="8.6"/>
		<rect x="389.4" y="192.4" class="st8" width="1.5" height="8.6"/>
		<rect x="394.7" y="192.4" class="st8" width="1.5" height="8.6"/>
		<rect x="400.1" y="192.4" class="st8" width="1.5" height="8.6"/>
		<rect x="405.4" y="192.4" class="st8" width="1.5" height="8.6"/>
		<rect x="410.8" y="192.4" class="st8" width="1.5" height="8.6"/>
		<rect x="416.1" y="192.4" class="st8" width="1.5" height="8.6"/>
		<rect x="421.4" y="192.4" class="st8" width="1.5" height="8.6"/>
		<rect x="384.1" y="204.4" class="st8" width="1.5" height="8.6"/>
		<rect x="389.4" y="204.4" class="st8" width="1.5" height="8.6"/>
		<rect x="394.7" y="204.4" class="st8" width="1.5" height="8.6"/>
		<rect x="400.1" y="204.4" class="st8" width="1.5" height="8.6"/>
		<rect x="405.4" y="204.4" class="st8" width="1.5" height="8.6"/>
		<rect x="410.8" y="204.4" class="st8" width="1.5" height="8.6"/>
		<rect x="416.1" y="204.4" class="st8" width="1.5" height="8.6"/>
		<rect x="421.4" y="204.4" class="st8" width="1.5" height="8.6"/>
		<rect x="389.4" y="217" class="st8" width="1.5" height="8.6"/>
		<rect x="394.7" y="217" class="st8" width="1.5" height="8.6"/>
		<rect x="400.1" y="217" class="st8" width="1.5" height="8.6"/>
		<rect x="405.4" y="217" class="st8" width="1.5" height="8.6"/>
		<rect x="410.8" y="217" class="st8" width="1.5" height="8.6"/>
		<rect x="416.1" y="217" class="st8" width="1.5" height="8.6"/>
		<rect x="421.4" y="217" class="st8" width="1.5" height="8.6"/>
		<rect x="471.3" y="189.8" class="st9" width="3.7" height="9.3"/>
		<rect x="471.3" y="207.6" class="st9" width="3.7" height="9.3"/>
		<rect x="471.3" y="225.3" class="st9" width="3.7" height="9.3"/>
		<rect x="471.3" y="243.1" class="st9" width="3.7" height="9.3"/>
		<rect x="471.3" y="259.8" class="st9" width="3.7" height="9.3"/>
		<rect x="471.3" y="277.6" class="st9" width="3.7" height="9.3"/>
		<rect x="487" y="189.8" class="st9" width="3.7" height="9.3"/>
		<rect x="487" y="207.6" class="st9" width="3.7" height="9.3"/>
		<rect x="487" y="225.3" class="st9" width="3.7" height="9.3"/>
		<rect x="487" y="243.1" class="st9" width="3.7" height="9.3"/>
		<rect x="487" y="259.8" class="st9" width="3.7" height="9.3"/>
		<rect x="487" y="277.6" class="st9" width="3.7" height="9.3"/>
		<rect x="502.6" y="189.8" class="st9" width="3.7" height="9.3"/>
		<rect x="502.6" y="207.6" class="st9" width="3.7" height="9.3"/>
		<rect x="502.6" y="225.3" class="st9" width="3.7" height="9.3"/>
		<rect x="502.6" y="243.1" class="st9" width="3.7" height="9.3"/>
		<rect x="502.6" y="259.8" class="st9" width="3.7" height="9.3"/>
		<rect x="502.6" y="277.6" class="st9" width="3.7" height="9.3"/>
		<rect x="518.3" y="189.8" class="st9" width="3.7" height="9.3"/>
		<rect x="518.3" y="207.6" class="st9" width="3.7" height="9.3"/>
		<rect x="518.3" y="225.3" class="st9" width="3.7" height="9.3"/>
		<rect x="518.3" y="243.1" class="st9" width="3.7" height="9.3"/>
		<rect x="518.3" y="259.8" class="st9" width="3.7" height="9.3"/>
		<rect x="518.3" y="277.6" class="st9" width="3.7" height="9.3"/>
		<rect x="412.3" y="60.4" class="st8" width="3" height="8.1"/>
		<rect x="419.8" y="60.4" class="st8" width="3" height="8.1"/>
		<rect x="427.3" y="60.4" class="st8" width="3" height="8.1"/>
		<rect x="434.9" y="60.4" class="st8" width="3" height="8.1"/>
		<rect x="412.3" y="73.9" class="st8" width="3" height="8.1"/>
		<rect x="419.8" y="73.9" class="st8" width="3" height="8.1"/>
		<rect x="427.3" y="73.9" class="st8" width="3" height="8.1"/>
		<rect x="434.9" y="73.9" class="st8" width="3" height="8.1"/>
		<rect x="412.3" y="87.4" class="st8" width="3" height="8.1"/>
		<rect x="419.8" y="87.4" class="st8" width="3" height="8.1"/>
		<rect x="443.4" y="60.4" class="st8" width="3" height="8.1"/>
		<rect x="209.5" y="142.7" class="st10" width="1.9" height="7.4"/>
		<rect x="216.4" y="142.7" class="st10" width="1.9" height="7.4"/>
		<rect x="224.3" y="142.7" class="st10" width="1.9" height="7.4"/>
		<rect x="231.2" y="142.7" class="st10" width="1.9" height="7.4"/>
		<rect x="194.3" y="142.7" class="st10" width="1.9" height="7.4"/>
		<rect x="201.2" y="142.7" class="st10" width="1.9" height="7.4"/>
		<rect x="209.5" y="155.6" class="st10" width="1.9" height="7.4"/>
		<rect x="216.4" y="155.6" class="st10" width="1.9" height="7.4"/>
		<rect x="224.3" y="155.6" class="st10" width="1.9" height="7.4"/>
		<rect x="231.2" y="155.6" class="st10" width="1.9" height="7.4"/>
		<rect x="194.3" y="155.6" class="st10" width="1.9" height="7.4"/>
		<rect x="201.2" y="155.6" class="st10" width="1.9" height="7.4"/>
		<rect x="209.5" y="168.5" class="st10" width="1.9" height="7.4"/>
		<rect x="216.4" y="168.5" class="st10" width="1.9" height="7.4"/>
		<rect x="224.3" y="168.5" class="st10" width="1.9" height="7.4"/>
		<rect x="231.2" y="168.5" class="st10" width="1.9" height="7.4"/>
		<rect x="194.3" y="168.5" class="st10" width="1.9" height="7.4"/>
		<rect x="201.2" y="168.5" class="st10" width="1.9" height="7.4"/>
		<rect x="570.9" y="199.7" class="st8" width="3" height="11.5"/>
		<rect x="580.1" y="199.7" class="st8" width="3" height="11.5"/>
		<rect x="588.7" y="199.7" class="st8" width="3" height="11.5"/>
		<rect x="777.7" y="202.1" class="st9" width="2.3" height="6.5"/>
		<rect x="784.8" y="202.1" class="st9" width="2.3" height="6.5"/>
		<rect x="777.7" y="202.1" class="st9" width="2.3" height="6.5"/>
		<rect x="784.8" y="202.1" class="st9" width="2.3" height="6.5"/>
		<rect x="791.6" y="202.1" class="st9" width="2.3" height="6.5"/>
		<rect x="798.7" y="202.1" class="st9" width="2.3" height="6.5"/>
		<rect x="777.7" y="213.8" class="st9" width="2.3" height="6.5"/>
		<rect x="784.8" y="213.8" class="st9" width="2.3" height="6.5"/>
		<rect x="777.7" y="213.8" class="st9" width="2.3" height="6.5"/>
		<rect x="784.8" y="213.8" class="st9" width="2.3" height="6.5"/>
		<rect x="791.6" y="213.8" class="st9" width="2.3" height="6.5"/>
		<rect x="798.7" y="213.8" class="st9" width="2.3" height="6.5"/>
		<rect x="777.7" y="226.2" class="st9" width="2.3" height="6.5"/>
		<rect x="784.8" y="226.2" class="st9" width="2.3" height="6.5"/>
		<rect x="777.7" y="226.2" class="st9" width="2.3" height="6.5"/>
		<rect x="784.8" y="226.2" class="st9" width="2.3" height="6.5"/>
		<rect x="791.6" y="226.2" class="st9" width="2.3" height="6.5"/>
		<rect x="798.7" y="226.2" class="st9" width="2.3" height="6.5"/>
		<rect x="806.5" y="202.1" class="st9" width="2.3" height="6.5"/>
		<rect x="806.5" y="213.8" class="st9" width="2.3" height="6.5"/>
		<rect x="813.6" y="202.1" class="st9" width="2.3" height="6.5"/>
		<rect x="599.8" y="182.9" class="st9" width="2.4" height="10.1"/>
		<rect x="612" y="182.9" class="st9" width="2.4" height="10.1"/>
		<rect x="624.1" y="182.9" class="st9" width="2.4" height="10.1"/>
		<rect x="636.3" y="182.9" class="st9" width="2.4" height="10.1"/>
		<rect x="599.8" y="203.7" class="st9" width="2.4" height="10.1"/>
		<rect x="612" y="203.7" class="st9" width="2.4" height="10.1"/>
		<rect x="624.1" y="203.7" class="st9" width="2.4" height="10.1"/>
		<rect x="636.3" y="203.7" class="st9" width="2.4" height="10.1"/>
		<rect x="599.8" y="225.1" class="st9" width="2.4" height="10.1"/>
		<rect x="612" y="225.1" class="st9" width="2.4" height="10.1"/>
		<rect x="624.1" y="225.1" class="st9" width="2.4" height="10.1"/>
		<rect x="636.3" y="225.1" class="st9" width="2.4" height="10.1"/>
		<rect x="599.8" y="246.4" class="st9" width="2.4" height="10.1"/>
		<rect x="612" y="246.4" class="st9" width="2.4" height="10.1"/>
		<rect x="624.1" y="246.4" class="st9" width="2.4" height="10.1"/>
		<rect x="636.3" y="246.4" class="st9" width="2.4" height="10.1"/>
		<rect x="599.8" y="265.8" class="st9" width="2.4" height="10.1"/>
		<rect x="612" y="265.8" class="st9" width="2.4" height="10.1"/>
		<rect x="624.1" y="265.8" class="st9" width="2.4" height="10.1"/>
		<rect x="599.8" y="287.5" class="st9" width="2.4" height="10.1"/>
		<rect x="612" y="287.5" class="st9" width="2.4" height="10.1"/>
		<rect x="624.1" y="287.5" class="st9" width="2.4" height="10.1"/>
		<rect x="636.3" y="265.8" class="st9" width="2.4" height="10.1"/>
		<rect x="876.5" y="236.4" class="st9" width="2.5" height="5.8"/>
		<rect x="876.5" y="245.8" class="st9" width="2.5" height="5.8"/>
		<rect x="883" y="236.4" class="st9" width="2.5" height="5.8"/>
	</g>
</g>
</svg>
