<?xml version="1.0" encoding="utf-8"?>
<!-- Generator: Adobe Illustrator 24.1.2, SVG Export Plug-In . SVG Version: 6.00 Build 0)  -->
<svg version="1.1" id="Layer_1" xmlns="http://www.w3.org/2000/svg" xmlns:xlink="http://www.w3.org/1999/xlink" x="0px" y="0px"
	 viewBox="0 0 3349 1850" style="enable-background:new 0 0 3349 1850;" xml:space="preserve">
<style type="text/css">
	.st0{opacity:0.7;fill:#0099CC;}
	.st1{fill:#466EB6;}
	.st2{fill:#7F1CA0;}
	.st3{fill:#F47458;}
	.st4{fill:#F48C7F;}
	.st5{fill:#B75742;}
	.st6{fill:#13375B;}
	.st7{fill:#355389;}
	.st8{fill:#86B1F2;}
	.st9{fill:#FAE0B2;}
	.st10{fill:#DAEEF7;}
	.st11{fill:#50BFA5;}
	.st12{fill:#3C8F7C;}
	.st13{fill:#184655;}
	.st14{fill:#F7CC7F;}
	.st15{fill:#EFEFEF;}
	.st16{fill:#FFFFFF;}
	.st17{fill:#F79C8D;}
	.st18{fill:#042A44;}
	.st19{fill:#07345A;}
	.st20{fill:#F7A491;}
	.st21{fill:#327F6B;}
	.st22{opacity:0.3;fill:#9BC1F9;}
</style>
<path class="st0" d="M2945.7,1464.6h-351.2c37.6-34.5,61.6-86.9,61.6-145.4v-43c0-124.7,90.6-225.7,202.4-225.7l0,0
	c114.6,0,207.5-103.6,207.5-231.4v0c0-127.8-92.9-231.4-207.5-231.4h-34c-111.8,0-202.4-101.1-202.4-225.7v0
	c0-104-75.6-188.4-168.9-188.4H1133.3c-103.8,0-188,93.9-188,209.6v0c0,79.2,39.3,148.1,97.4,183.7H810.8
	c-96.7,0-175.1,80.9-175.1,180.7v0c0,119.6-93.9,216.5-209.8,216.5h-35.2c-118.8,0-215.1,99.4-215.1,222v0
	c0,122.6,96.3,222,215.1,222h0c115.9,0,209.8,96.9,209.8,216.5v41.3c0,99.8,78.4,180.7,175.1,180.7h814.7c6.1,0.6,12.4,0.9,18.7,0.9
	h1336.8c105.7,0,191.4-85.7,191.4-191.4v0C3137.1,1550.3,3051.4,1464.6,2945.7,1464.6z"/>
<g>
	<path class="st1" d="M1021.7,1234.9c-5.3,0-9.7,6.1-9.7,13.7c0,7.6,4.3,13.8,9.6,13.8c5.3,0,9.7-6.1,9.7-13.7
		C1031.3,1241.1,1027,1234.9,1021.7,1234.9z M1021.7,1238.8c2.9,0,5.2,1.4,5.2,3.2c0,1.8-2.3,3.2-5.2,3.2c-2.9,0-5.2-1.4-5.2-3.2
		C1016.5,1240.2,1018.8,1238.8,1021.7,1238.8z M1021.6,1257.2c-4,0-7.3-2.2-7.3-4.9c0-2.7,3.3-4.9,7.3-4.9c4,0,7.3,2.2,7.3,4.9
		C1029,1255.1,1025.7,1257.3,1021.6,1257.2z"/>
	<path class="st2" d="M999.8,1265.3c-2,4.4-3.1,9.1-3.1,13.9l-0.2,100.7c0,6.1,5,11,11.1,11l57.6,0.1c6.1,0,11.1-4.9,11.1-11
		l0.2-100.7c0-4.8-1-9.6-3-14L999.8,1265.3z"/>
	<path class="st2" d="M999.8,1265.3c-2,4.4-3.1,9.1-3.1,13.9l-0.2,100.7c0,6.1,5,11,11.1,11l57.6,0.1c6.1,0,11.1-4.9,11.1-11
		l0.2-100.7c0-4.8-1-9.6-3-14L999.8,1265.3z"/>
	<path class="st3" d="M1076.5,1279.4l-0.2,100.7c0,6.1-5,11-11.2,11l-57.6-0.1c-6.2,0-11.1-5-11.1-11l0.2-100.7
		c0-4.8,1.1-9.6,3.1-13.9l73.7,0.2C1075.5,1269.8,1076.5,1274.6,1076.5,1279.4z"/>
	<path class="st4" d="M1011.7,1379.9l0.2-100.7c0-4.8,1.1-9.6,3.1-13.9l-15.3,0c-2,4.4-3.1,9.1-3.1,13.9l-0.2,100.7
		c0,6.1,5,11,11.1,11l15.3,0C1016.7,1391,1011.7,1386,1011.7,1379.9z"/>
	<path class="st5" d="M1076.5,1279.4l-0.2,100.7c0,6.1-5,11-11.2,11l-23.5-0.1c6.2,0,11.3-4.9,11.3-11l0.2-100.7
		c0-4.8-1-9.6-3.1-13.9l23.4,0.1C1075.5,1269.8,1076.5,1274.6,1076.5,1279.4z"/>
	<path class="st6" d="M1073.5,1265.5l-73.7-0.2l0,0c0-3.2,2.7-5.8,5.9-5.8l61.9,0.2C1070.9,1259.6,1073.5,1262.2,1073.5,1265.5
		L1073.5,1265.5z"/>
	
		<rect x="1030.1" y="1326.5" transform="matrix(2.455419e-03 -1 1 2.455419e-03 -332.5254 2399.4077)" class="st7" width="12.5" height="79.8"/>
</g>
<g>
	<path class="st8" d="M927.3,1232.9h8.8c-1.4-1-3.2-1.6-5.2-1.6H710.3c-11.5,0-20.9,8.3-20.9,18.5v11.8c0,10.2,9.4,18.5,20.9,18.5
		l218.1-0.1L927.3,1232.9z"/>
	<path class="st1" d="M802,1231.3c-11,0-20,7.9-20,17.7v13.3c0,9.8,8.9,17.7,20,17.7h137.3v-3h-0.6l-34.9-2.9l-7.1-24.5
		c0,0,13.6-13.6,14.5-13.9c0.9-0.3,27.5-1.4,27.5-1.4l0.6,0v-3H802z"/>
	<path class="st9" d="M930.4,1255.6c0-14.3,8.4-21.3,8.4-21.3H804.9c-10.1,0-18.4,7.3-18.4,16.3v10.2c0,9,8.2,16.3,18.4,16.3h133.9
		C938.8,1277.1,930.4,1273.7,930.4,1255.6z"/>
	<path class="st10" d="M786.5,1250.6v10.2c0,1.3,0.2,2.7,0.5,3.9c4.5-9.8,13.2-19.2,29.7-22.3c38.5-7.1,122.1-8.1,122.1-8.1H804.9
		C794.7,1234.3,786.5,1241.6,786.5,1250.6z"/>
	<path class="st11" d="M923.6,1330.4h10c-1.6-1.2-3.7-2-5.9-2H678.1c-13.1,0-23.6,10.4-23.6,23.2v14.7c0,12.8,10.6,23.2,23.6,23.2
		l246.8-0.1L923.6,1330.4z"/>
	<path class="st12" d="M781.9,1328.5c-12.5,0-22.6,9.9-22.6,22.2v16.6c0,12.2,10.1,22.2,22.6,22.2h155.4v-3.7h-0.6l-39.5-3.7
		l-8-30.7c0,0,15.4-17,16.4-17.4s31.1-1.8,31.1-1.8l0.6,0v-3.7H781.9z"/>
	<path class="st9" d="M927.2,1358.9c0-18,9.5-26.7,9.5-26.7H785.1c-11.5,0-20.8,9.1-20.8,20.4v12.8c0,11.2,9.3,20.4,20.8,20.4h151.6
		C936.7,1385.7,927.2,1381.5,927.2,1358.9z"/>
	<path class="st10" d="M764.3,1352.6v12.8c0,1.7,0.2,3.3,0.6,4.9c5.1-12.3,14.9-24.1,33.6-27.9c43.6-8.9,138.2-10.2,138.2-10.2
		H785.1C773.6,1332.2,764.3,1341.3,764.3,1352.6z"/>
	<path class="st3" d="M646.2,1281.5h-10c1.6-1,3.7-1.6,5.9-1.6h249.7c13.1,0,23.7,8.2,23.7,18.4v11.7c0,10.2-10.6,18.4-23.7,18.4
		l-246.9-0.1L646.2,1281.5z"/>
	<path class="st5" d="M788,1280c12.5,0,22.6,7.9,22.6,17.6v13.2c0,9.7-10.1,17.6-22.6,17.6H632.5v-3h0.6l39.5-2.9l8-24.4
		c0,0-15.4-13.5-16.4-13.8c-1-0.3-31.1-1.4-31.1-1.4l-0.6,0v-2.9H788z"/>
	<path class="st9" d="M642.6,1304.1c0-14.2-9.5-21.2-9.5-21.2h151.7c11.5,0,20.8,7.2,20.8,16.2v10.2c0,8.9-9.3,16.2-20.8,16.2H633.1
		C633.1,1325.4,642.6,1322,642.6,1304.1z"/>
	<path class="st10" d="M805.6,1299.1v10.2c0,1.3-0.2,2.6-0.6,3.9c-5.1-9.7-14.9-19.1-33.6-22.1c-43.6-7-138.3-8.1-138.3-8.1h151.7
		C796.3,1283,805.6,1290.2,805.6,1299.1z"/>
</g>
<rect x="1428.6" y="1259.4" transform="matrix(0.9825 0.1862 -0.1862 0.9825 314.394 -241.2626)" class="st13" width="25.6" height="587"/>
<polygon class="st13" points="2234.4,1846.3 2264.7,1846.3 2151.8,1262.1 2126.7,1266.8 "/>
<polygon class="st13" points="1680.1,1846.3 1710.4,1846.3 1597.6,1262.1 1572.4,1266.8 "/>
<polygon class="st13" points="1958.6,1846.3 1934,1846.6 2042.1,1264.7 2067.3,1269.4 "/>
<path class="st9" d="M1848.7,475.2c99.7,10.7,228.6,21.9,358.1,241.7c141.5,240.2,67,598.9-44.7,698.6
	c-111.7,99.7-476.5,222.8-783.2,38.5c0,0-185.2-111.7-90.1-297c146.2-285.2,125.6-344.7,191-456.5S1637.2,452.6,1848.7,475.2z"/>
<path class="st14" d="M2206.9,716.9c-88.4-150-176.5-202.8-255.3-224.7c30.5,31.5,61.3,72.1,92.2,124.5
	c141.5,240.2,67,598.9-44.7,698.6c-99.1,88.4-397.2,195.2-677.3,89.7c28.8,31.9,57.1,48.9,57.1,48.9
	c306.7,184.3,671.5,61.2,783.2-38.5C2273.9,1315.8,2348.4,957,2206.9,716.9z"/>
<path class="st4" d="M592.9,729.5c-2.6,20.7,19,37.2,38.1,35.9c21.2-1.4,39.2-18.8,42.3-39.7c3.4-22.6-10.2-40.6-31.2-42.3
	c-20.4-1.6-33.5,16.6-27.6,34.9c4.2,13.2,16.2,18.1,22.3,14.4c4.7-2.8,4.4-10-1.3-11.2c-2.3-0.5-4.6,0.8-5.9,2.5
	c-5-2-9.7-11.1-6.5-20.9c4.1-12.5,20-13.3,29.8-7.4c12.5,7.4,14.5,23.5,9.9,36.3c-4.8,13.4-18,24-32.3,25
	c-16.2,1.2-30.5-11.3-31.8-27.5C598.5,725.7,593.4,725.8,592.9,729.5z"/>
<g>
	<path class="st9" d="M2130.5,93.7c-96-0.6-174,46.8-174.4,105.7c-0.2,29.5,19.1,56.3,50.4,75.8l-39.5,86.7l82.4-67.1
		c23.9,7.8,51,12.2,79.8,12.4c96,0.6,174-46.8,174.4-105.7C2303.9,142.5,2226.4,94.3,2130.5,93.7z"/>
	<g>
		<path class="st14" d="M2064,210.6c8.5,32.3,41.6,51.6,74,43.1c32.3-8.5,51.6-41.7,43.1-74c-8.5-32.3-41.6-51.6-74-43.1
			C2074.8,145.1,2055.5,178.3,2064,210.6z"/>
		<path class="st15" d="M2156.3,196.2c4.6,17.3-5.8,35-23.1,39.6c-17.3,4.6-35-5.8-39.6-23.1L2156.3,196.2z"/>
	</g>
</g>
<g>
	<path class="st3" d="M919,819.6l264.9-2c6,0,10.9-5,10.9-11l-1.3-177.1c0-6-5-10.9-11-10.9l-264.9,2c-6,0-10.9,5-10.9,11l1.3,177.1
		C908,814.8,913,819.6,919,819.6z"/>
	<polygon class="st3" points="1185.4,717.1 1270.9,804.3 1165.4,784.6 	"/>
	<g>
		<path class="st16" d="M1108.2,704.8l-25.7-0.5c0,0-32.4-24.2-33.4-32.8c-1-8.6,4.3-26.7-0.7-29c-5-2.3-15.7-4.1-22.4,7.3
			c-4.9,8.2-0.8,38.3-3.8,40.3c-1.9,1.3-16.7,1.4-27.5,1.3c-7.1,0-13.6,3.9-17,10.2l0,0c-2.3,4.2-1.2,9.5,2.5,12.6l5.7,4.8l-4.5,6
			c-3.4,4.5-2.5,10.8,2,14.2l4.5,3.5l-3.1,3.5c-4,4.6-3.2,11.6,1.8,15l4,2.8l-0.6,1.1c-2.5,4.6-1.1,10.4,3.3,13.3l4,2.7l68.6,1.2
			c6.4,0.1,12.8-1.1,18.7-3.5l24.2-3.6c2.6-0.4,4.5-2.6,4.5-5.2l0.2-60C1113.4,707.2,1111.1,704.9,1108.2,704.8z"/>
	</g>
</g>
<polygon class="st17" points="1528.8,840.2 1503.1,917.1 1581.2,886.4 "/>
<path class="st18" d="M1609.2,611.5c-5.2,0.2-19.5,5-40.3,44.3c-26.6,50.2-65.6,201.7-65.6,201.7l116.2,43.1l14.9-31.6l24.6-243.5
	C1659.1,625.5,1610.7,611.5,1609.2,611.5z"/>
<path class="st19" d="M1762.8,589.7c-33.2,0-115.4,9.7-153.6,21.9c0,0-28,240.1,25.2,422.6c11.9,40.8-9.9,169.3-9.9,169.3l344.3-4.5
	c0,0-40.8-310.6-25.4-360.7c15.4-50.2,15.7-225,15.7-225s-2.4-0.4-77.4-13.3C1846.9,593.9,1798.3,589.7,1762.8,589.7z"/>
<path class="st20" d="M1802.9,1649.1c0,0-7.6,87.6-21.6,111.9c-14,24.3,0.7,65.5,1.5,71.2c0.7,5.7,29.5,13.7,75.2,8.9
	c45.7-4.9,45-15.4,41.3-32.3c-3.7-17-28-38.8-29.5-55c-1.5-16.2,14-74.4,14-74.4L1802.9,1649.1z"/>
<path class="st21" d="M1663.5,1131.1c0,0-237.7-13.2-290.7,18.9c-53.1,32,9.6,97.8,9.6,97.8s193.5,83.8,517.4,102.5
	c76.7,4.4,83.3-199.3,69-216.2C1954.4,1117.2,1663.5,1131.1,1663.5,1131.1z"/>
<path class="st7" d="M1863.7,1847.8c47.1-5,41.2-28,37.4-45.5c-2.4-11-15.9-23.9-23.9-36.1c-4.2,3.3-11,9.2-31.5,15.3
	c-21.2,6.2-50.3-6.1-68.8-13.9c-6.6,24.5-6.9,55.8-6.3,60.5C1771.3,1833.9,1816.6,1852.8,1863.7,1847.8z"/>
<path class="st12" d="M1837.7,1300.5c-9.5,71.6-56.5,428.1-56.5,428.1l109.1,13.5c0,0,134.1-465.3,127.3-536.5
	c-6.9-71.2-57.1-77.2-57.1-77.2S1862.8,1111,1837.7,1300.5z"/>
<path class="st19" d="M1733.2,286.8c0,0,36.2-38.2,65.4,8.3c0,0,22.5-12.6,38.2,9.8c0,0,40.6-12.2,50.4,48.5c0,0,20.9-3.9,23.6,20.9
	c2.8,24.8-9.8,41.4-9.8,41.4s11.7,8.8,6.4,31.6c-4.5,19.4-20.6,22.4-20.6,22.4s-4.3,32.7-18.5,42.5c-14.2,9.8-33.5,5.1-33.5,5.1
	s-5.1,17.7-21.7,16.2c-16.5-1.6-37-17.3-55.5-10.2c-18.5,7.1-66.6-0.4-66.6-0.4s-54-24-37.8-79.2c0,0-28.4-25.6-3.5-56.3
	c0,0-18.1-48.1,17.7-76.4C1703.3,282.4,1733.2,286.8,1733.2,286.8z"/>
<path class="st20" d="M1739.3,546.2l-6.6,48.7c0,0-14.7,70.1,4.2,83.6c18.9,13.5,80.4-85.6,80.4-85.6l-6.5-123.3L1739.3,546.2z"/>
<path class="st3" d="M1813,509.5c-15.6,42.1-52.8,67.9-79.2,78l5.6-41.3l71.6-76.7L1813,509.5z"/>
<path class="st20" d="M1767.2,340c-38.4-13.2-79.3,12.3-85.1,51.8c-2.5,17.2-4.8,38.8-5.3,62.4c-1,56.9,28.4,112.2,54.2,112.2
	c25.8,0,97.2-36.8,99.7-117.5C1832.3,399.1,1807.5,353.8,1767.2,340z"/>
<path class="st20" d="M1811.7,455.3c0,12.5,8.3,22.7,18.6,22.7c10.3,0,18.6-10.2,18.6-22.7c0-12.5-8.3-22.7-18.6-22.7
	C1820,432.6,1811.7,442.8,1811.7,455.3z"/>
<path class="st19" d="M1655.4,311.7c-26.7,21.1-36,53.2-20.9,71.7c15.1,18.5,49,16.3,75.7-4.8c26.7-21.1,36-53.2,20.9-71.7
	C1715.9,288.4,1682,290.6,1655.4,311.7z"/>
<path class="st20" d="M1963,639.9c-32.2-12-47.9,277-52.3,396c-57,5.5-156.4,0-181.1-1.8c-11.6-0.9-38.5-10.7-50-12.2
	c-11.9-1.5-22.6-2.4-28.4-1.3c-2.1,0.4-61.6,24.6-66.6,29.9c-6.3,6.6-23.3,23.2-20.5,30.4c2.9,7.2,32.8-20,32.8-20l14.6-8.2
	c-18.2,17.7-52.9,41-47.9,49.5c4.9,8.3,36.2-15.4,58.5-31.5c-19.1,17.2-42.9,48-37.4,52.8c4.9,4.3,32-31.4,60.9-41.6
	c10.7-3.8,21.4,6.7,29.8,8c6.2,0.9,15.7,2.9,21.8,1.2l31.3-8.8c10.7,1,10.9,7.2,21.7,9.5c12.5,2.7,33,5.4,48.9,9.3
	c91.6,22.3,122.2,32.7,150.2,32.7C2034.1,1133.7,2039,668.3,1963,639.9z"/>
<path class="st19" d="M2024.1,911.2c6-121.9,5.1-272.1-63.4-297.7c-27-10.1-74.7,50.7-66.2,300.2
	C1931.1,916.7,1984.8,919.1,2024.1,911.2z"/>
<polygon class="st17" points="1640.5,858.9 1647.5,858.9 1752.6,1116.1 1745.3,1115 "/>
<path class="st20" d="M1484,1724c0,0,9.5,30.4-7.5,50.5c-17,20.1-87.9,39.8-97.2,50.7c-9.3,10.9-8.6,20.2-8.6,20.2l198.8-5.5
	l-2.2-59.8l-9.2-43L1484,1724z"/>
<path class="st7" d="M1464.1,1784.6c0,0,51.1,20.6,75.7,8.4c24.7-12.2,23.9-15.6,31.1-11c7.1,4.5,9.7,60.6,9.7,60.6l-223.5,6.5
	c-15.6-0.4-23.4-11.8-10.8-21.5c8.7-6.7,18.7-11.2,24.4-14.4C1388.1,1803.1,1464.1,1784.6,1464.1,1784.6z"/>
<path class="st12" d="M1491.5,1187.2c-15.4-32.2-50.3-74.2-111.8-48.9c-58.6,24.1-74.4,83.3-55.9,144
	c18.5,60.6,140.3,417.2,144.5,466.2l97.2,0.6c0,0-17.7-282.3-22-350.5C1539.4,1332.9,1518.1,1243,1491.5,1187.2z"/>
<path class="st3" d="M1333.6,858.9h325.1c8.6,0,16.3,5.2,19.6,13.2l100.1,244.1h179.2c5,0,9.1,4.1,9.1,9.1l0,0c0,5-4.1,9.1-9.1,9.1
	h-510c-14,0-26.7-8.2-32.5-21l-100.8-224.5C1308,874.7,1318.3,858.9,1333.6,858.9z"/>
<path class="st16" d="M1508.6,1001c2.2,11,11.8,18.3,21.4,16.4c9.6-1.9,15.6-12.4,13.4-23.3c-2.2-11-11.8-18.3-21.4-16.4
	C1512.4,979.6,1506.4,990.1,1508.6,1001z"/>
<ellipse class="st22" cx="2412.9" cy="457.2" rx="149.3" ry="149.6"/>
<g>
	<g>
		<g>
			<rect x="2252.3" y="454.2" class="st13" width="55" height="4.2"/>
		</g>
		<g>
			<rect x="2518.8" y="454.2" class="st13" width="55" height="4.2"/>
		</g>
		<g>
			<rect x="2410.6" y="297.4" class="st13" width="4.2" height="55.2"/>
		</g>
		<g>
			<rect x="2410.6" y="563.3" class="st13" width="4.2" height="55.2"/>
		</g>
		<path class="st13" d="M2417.5,457.2c0,2.5-2,4.6-4.6,4.6c-2.5,0-4.6-2-4.6-4.6c0-2.5,2-4.6,4.6-4.6
			C2415.4,452.6,2417.5,454.7,2417.5,457.2z"/>
		<g>
			<path class="st13" d="M2412.9,459.2c-0.5,0-1-0.2-1.4-0.6l-81.9-82c-0.8-0.8-0.8-2.1,0-2.9c0.8-0.8,2.1-0.8,2.9,0l81.9,82
				c0.8,0.8,0.8,2.1,0,2.9C2413.9,459,2413.4,459.2,2412.9,459.2z"/>
		</g>
		<g>
			<path class="st13" d="M2439.2,540.1c-0.3-0.2-0.6-0.5-0.7-0.9l-26.5-80.1c-0.3-0.8,0.2-1.6,0.9-1.9c0.8-0.3,1.6,0.2,1.9,0.9
				l26.5,80.1c0.3,0.8-0.2,1.6-0.9,1.9C2440,540.3,2439.6,540.3,2439.2,540.1z"/>
		</g>
	</g>
</g>
<path class="st19" d="M2650.9,794.6l13.3-21.6l-10.7-4.3c-2.3-0.9-3.5-3.6-2.5-6l0,0c0.9-2.3,3.6-3.5,6-2.5l12.3,5l11.9-19.4
	l-11.4-4.6c-2.3-0.9-3.5-3.6-2.5-6l0,0c0.9-2.3,3.6-3.5,6-2.5l13.1,5.3l13.8-22.3c1.2-1.9,3.5-2.7,5.6-1.8l2,0.8
	c2.6,1.1,3.7,4.2,2.2,6.6l-12.9,21l19,7.7l13.8-22.3c1.2-1.9,3.5-2.7,5.6-1.8l2.2,0.9c2.6,1.1,3.7,4.2,2.2,6.6l-12.9,21l10.7,4.3
	c2.3,0.9,3.5,3.6,2.5,6l0,0c-0.9,2.3-3.6,3.5-6,2.5l-12.3-5l-11.7,19.5l11.4,4.6c2.3,0.9,3.5,3.6,2.5,6l0,0c-0.9,2.3-3.6,3.5-6,2.5
	l-13.1-5.3l-14.1,23c-1.2,1.9-3.5,2.7-5.6,1.8l-2.3-0.9c-2.6-1.1-3.7-4.2-2.2-6.6l13.3-21.6l-19-7.7l-14.1,23
	c-1.2,1.9-3.5,2.7-5.6,1.8l-2.3-0.9C2650.4,800.2,2649.4,797.1,2650.9,794.6z M2699.1,777.3l11.9-19.4l-19-7.7l-11.9,19.4
	L2699.1,777.3z"/>
<path class="st4" d="M1481.8,205.9l13.6-30.8l-17.6-28.7c-2-3.3,0.6-7.4,4.4-7l33.5,3.5l21.8-25.6c2.5-2.9,7.2-1.7,8,2l7.1,32.9
	l31.1,12.8c3.5,1.5,3.9,6.3,0.6,8.3l-29.1,16.9l-2.6,33.5c-0.3,3.8-4.8,5.6-7.7,3.1l-25-22.5l-32.7,7.9
	C1483.4,213.1,1480.2,209.4,1481.8,205.9z"/>
<path class="st14" d="M2468.8,205.8l10.2-23.1l-13.2-21.5c-1.5-2.4,0.5-5.6,3.3-5.3l25.1,2.6l16.4-19.2c1.9-2.2,5.4-1.3,6,1.5
	l5.3,24.7l23.3,9.6c2.7,1.1,2.9,4.8,0.4,6.2l-21.8,12.7l-1.9,25.2c-0.2,2.9-3.6,4.2-5.8,2.3l-18.8-16.8l-24.5,5.9
	C2470,211.3,2467.6,208.5,2468.8,205.8z"/>
<path class="st4" d="M2367.4,864.9l-1.6-19.1l-16.7-9.5c-1.9-1.1-1.7-3.9,0.3-4.7l17.7-7.4l3.9-18.8c0.4-2.1,3.1-2.8,4.6-1.2
	l12.5,14.5l19.1-2.1c2.2-0.2,3.7,2.1,2.5,4l-9.9,16.4l7.9,17.5c0.9,2-0.9,4.1-3,3.7l-18.7-4.4l-14.2,12.9
	C2370.1,868.1,2367.5,867.1,2367.4,864.9z"/>
<path class="st14" d="M838.7,584l7.5-16.9l-9.7-15.8c-1.1-1.8,0.3-4.1,2.4-3.9l18.4,1.9l12-14.1c1.4-1.6,4-0.9,4.4,1.1l3.9,18.1
	l17.1,7.1c1.9,0.8,2.1,3.5,0.3,4.5l-16,9.3l-1.4,18.4c-0.2,2.1-2.7,3.1-4.2,1.7l-13.8-12.4l-18,4.3C839.5,588,837.8,585.9,838.7,584
	z"/>
<path class="st11" d="M1418.8,553.4l7.5-16.9l-9.7-15.8c-1.1-1.8,0.3-4.1,2.4-3.9l18.4,1.9l12-14.1c1.4-1.6,4-0.9,4.4,1.1l3.9,18.1
	l17.1,7.1c1.9,0.8,2.1,3.5,0.3,4.5l-16,9.3l-1.4,18.4c-0.2,2.1-2.7,3.1-4.2,1.7l-13.8-12.4l-18,4.3
	C1419.6,557.4,1417.9,555.3,1418.8,553.4z"/>
<polygon class="st11" points="1129.9,279.4 1159.6,275 1171.8,322.1 1216.1,321.1 1230.9,354.8 1248,347.3 1228.1,302.2 
	1186.2,303.1 1173.5,254.2 1128.8,260.7 "/>
<polygon class="st19" points="1066.3,1067 1088.7,1047.1 1124.7,1079.7 1161.2,1054.7 1192.1,1074.7 1202.2,1059.1 1160.9,1032.3 
	1126.3,1056 1088.9,1022.1 1055.1,1052 "/>
<path class="st11" d="M713.3,1091.6l18.9-30.6l-15.1-6.1c-3.3-1.3-4.9-5.1-3.6-8.4l0,0c1.3-3.3,5.1-4.9,8.4-3.6l17.5,7.1l16.9-27.5
	l-16.2-6.6c-3.3-1.3-4.9-5.1-3.6-8.4l0,0c1.3-3.3,5.1-4.9,8.4-3.6l18.5,7.5l19.6-31.5c1.7-2.7,5-3.8,7.9-2.6l2.8,1.1
	c3.7,1.5,5.2,6,3.1,9.4l-18.2,29.7l26.8,10.9l19.6-31.5c1.7-2.7,5-3.8,7.9-2.6l3.1,1.3c3.7,1.5,5.2,6,3.1,9.4l-18.2,29.7l15.1,6.1
	c3.3,1.3,4.9,5.1,3.6,8.4l0,0c-1.3,3.3-5.1,4.9-8.4,3.6l-17.5-7.1l-16.6,27.6l16.2,6.6c3.3,1.3,4.9,5.1,3.6,8.4l0,0
	c-1.3,3.3-5.1,4.9-8.4,3.6l-18.5-7.5l-20,32.5c-1.7,2.7-5,3.8-7.9,2.6l-3.3-1.3c-3.7-1.5-5.2-6-3.1-9.4l18.9-30.6l-26.8-10.9
	l-20,32.5c-1.7,2.7-5,3.8-7.9,2.6l-3.3-1.3C712.6,1099.5,711.2,1095,713.3,1091.6z M781.6,1067.1l16.9-27.5l-26.8-10.9l-16.9,27.5
	L781.6,1067.1z"/>
<g>
	<path class="st12" d="M2426.6,1479.2c-1.9-16.9-4.2-34.3-12.1-49.4c-9.6-18.4-26.4-31.6-41-46.3c-27.4-27.3-48.5-60.9-61.2-97.5
		c-9.8-28.3-14.7-58.4-28.2-85.2c-8.2-16.3-19.5-30.9-28.8-46.6c-22.1-37.1-34.2-81-64.2-112c-5.8,37.7,5.6,77.6,30.4,106.5
		c7.4,8.6,16,16.4,21.6,26.2c10.2,17.9,9.3,39.7,10.5,60.3c2.2,38.7,13.2,76.9,31.7,110.9c19.7,36.1,48.1,68.3,58.6,108.1
		c7.9,29.8,5.5,63.3,22.4,89.1c1.8,2.8,3.9,5.6,4.4,8.9c0.3,1.9,0,3.7-0.3,5.6c-0.4,2.4-0.8,4.8-1.1,7.2
		c-3.8,24.4-7.8,55.5,13.2,73.7c14.5,12.7,33.3,12.9,43.7-3.9c10.5-16.9,9.6-41.7,8.8-60.8
		C2433.6,1542.5,2430.2,1510.7,2426.6,1479.2z"/>
	<path class="st21" d="M2464.4,1459.5c-8.2-28.3-20.8-55.2-27.2-83.9c-6.2-27.9-6.2-56.7-6.2-85.2c0-31.3,0-62.5-0.1-93.8
		c0-19.5,0-39-3.3-58.2c-6.9-41.3-28.4-79.5-32-121.2c-1.6-18,0.3-36.3-1.7-54.3c-1.1-10.3-3.8-20.8-8.5-29.9
		c-5.1-9.8-19.3-9.4-23.9,0.7c-10.4,22.6-17,47-12.8,71.2c2.5,14.5,8.8,28.1,13.5,42c20.9,62.2,9.8,131.1,26,194.7
		c4.9,19.2,12.3,38,13.1,57.8c2.1,47.4-33.3,90.7-30.1,138c2.7,38.8,30.5,70.9,42.3,108c6.6,20.8,8,42.9,15,63.5
		c5.5,16,18.1,35.4,37.8,30.6c18.7-4.6,13.1-19.9,12.2-34.5C2475.6,1555.6,2478.3,1507.7,2464.4,1459.5z"/>
	<path class="st12" d="M2507.2,1485.4c-0.8-14.7-3.3-29.4-1.2-44c1.7-12.3,6.6-23.9,10.1-35.8c6.6-22.3,8.2-45.8,9.8-69
		c2.9-42.2,5.8-84.4,8.7-126.6c4.5-65.6,9-131.4,21.3-196c3.4-17.9,7.2-37.4-0.8-53.8c-1.7-3.5-5-7.1-8.7-6
		c-2.6,0.8-3.9,3.7-4.8,6.3c-26.8,72.9-37,151.3-66.9,223c-7.2,17.2-15.5,34.1-19.2,52.3c-4.5,21.9-2,44.5-1.4,66.8
		c0.8,32-2.3,64.3-11.1,95.1c-4.6,16.1-10.8,31.9-13.4,48.4c-3.2,20.7-0.5,41.7,1.5,62.5c3.8,40,5.1,80.3,3.9,120.4
		c-0.7,23.6,19.2,23,32.4,8.5c9.2-10.1,9.2-21.3,12.3-33.9C2489.7,1562.2,2509.7,1530.4,2507.2,1485.4z"/>
	<path class="st21" d="M2382.6,1549.5c-17.6-28.3-52.7-44.4-64-75.8c-2.9-8-4-16.6-7.5-24.3c-7.8-17.2-25.5-26.9-42.9-34.8
		c-2.4-1.1-5.2,0.7-5.2,3.3l0,0c-0.1,4.2,1.9,8.3,5.4,10.6c13.4,9,23.6,22.8,28.1,38.3c5.4,18.4,3,38.6,9.7,56.6
		c5.6,15.1,17.1,27.4,22.6,42.6c5,13.9,4.4,29,6.8,43.5c2.3,14.5,8.8,30,22.1,36.1C2406.1,1667.8,2394,1567.8,2382.6,1549.5z"/>
	<path class="st12" d="M2583.5,1540.1c-0.8,13.7,1.3,28.1-4,40.7c-3.4,8.1-9.6,14.6-14.7,21.8c-17.8,25.1-24.2,60.8-51.5,74.9
		c-1.8,0.9-3.8,1.8-5.8,1.4c-2.8-0.5-4.6-3.2-5.8-5.8c-6.7-15.6,0.8-33.2,5.3-49.6c0.8-2.9,1.4-6.1,0.1-8.7
		c-1.5-2.9-4.9-4.2-7.3-6.4c-4.7-4.5-4.2-12-3.3-18.5c2.3-16.1,5.6-32.1,9.7-47.8c2.4-8.9,5.1-17.9,10.2-25.6
		c5.7-8.4,13.9-14.7,21.6-21.4c34-29.3,60.1-67.7,74.6-110.2c3.2-9.2,6-18.9,12.5-26.1c6.5-7.2,18.1-10.9,26.1-5.3
		c5.7,4-17.5,41.2-20.2,45.7c-7.7,12.8-7.8,23.9-12.2,38C2608.2,1471.8,2585.5,1502.9,2583.5,1540.1z"/>
	<path class="st21" d="M2556.5,1555.9c5.1-13.1,10.1-26.3,11.8-40.2c1.9-15.5-0.6-31.3,2-46.6c3.4-19.7,14.9-37.1,20.6-56.3
		c4.1-13.9,5.1-28.4,7.6-42.7c7.1-40.7,26.2-80.5,20.7-121.5c-1.2-8.9-5.2-19.3-14.1-20.8c-8-1.4-15.3,5.9-17.4,13.8
		c-2.1,7.9-0.5,16.2,0,24.3c1.6,22.6-4.9,45.8-18,64.3c-12.6,17.8-30.8,31.2-42.2,49.8c-13.9,22.9-15.8,50.8-22.9,76.6
		c-14.1,51.3-49.4,96.1-55.9,148.9c-2.6,21,2.4,46.6,21.8,55C2526.9,1684.8,2543.8,1588.8,2556.5,1555.9z"/>
	<path class="st3" d="M2458.5,1621.1h-9h-119.8c-8.8,0-15.3,8.2-13.3,16.8l46.9,197.9c1.5,6.2,6.9,10.5,13.3,10.5h72.8h9h72.8
		c6.3,0,11.8-4.3,13.3-10.5l46.9-197.9c2-8.6-4.5-16.8-13.3-16.8H2458.5z"/>
</g>
<g>
	<rect x="540.8" y="1389.4" class="st13" width="625.9" height="32.3"/>
	<rect x="552.2" y="1576.9" class="st13" width="409.2" height="28.3"/>
	<rect x="1078.9" y="1405.6" class="st13" width="26.4" height="440.9"/>
	<rect x="705.5" y="1405.6" class="st13" width="26.4" height="440.9"/>
	<polygon class="st13" points="891.1,1846.4 1033.3,1409.4 1010,1401.8 865.3,1846.4 	"/>
	<polygon class="st13" points="491.1,1846.4 612.7,1408.4 589.1,1401.9 465.6,1846.4 	"/>
</g>
<path class="st13" d="M2412.9,282.5c-96.3,0-174.4,78.2-174.4,174.7c0,96.5,78.1,174.7,174.4,174.7c96.3,0,174.4-78.2,174.4-174.7
	C2587.3,360.7,2509.2,282.5,2412.9,282.5z M2422.3,606.5c-82.3,5.2-153.2-57.5-158.4-139.9c-5.2-82.5,57.4-153.5,139.7-158.7
	c82.3-5.2,153.2,57.5,158.4,139.9C2567.1,530.3,2504.5,601.3,2422.3,606.5z"/>
<path class="st16" d="M1707.6,503.3l50-0.8c0,0-0.8,19-22.8,20C1708,523.7,1707.6,503.3,1707.6,503.3z"/>
</svg>
