<?xml version="1.0" encoding="utf-8"?>
<!-- Generator: Adobe Illustrator 24.1.2, SVG Export Plug-In . SVG Version: 6.00 Build 0)  -->
<svg version="1.1" id="Слой_1" xmlns="http://www.w3.org/2000/svg" xmlns:xlink="http://www.w3.org/1999/xlink" x="0px" y="0px"
	 viewBox="0 0 3050 1705.7" style="enable-background:new 0 0 3050 1705.7;" xml:space="preserve">
<style type="text/css">
	.st0{opacity:0.7;fill:#0099CC;}
	.st1{fill:#ACC7EB;}
	.st2{fill:#C8DBF4;}
	.st3{fill:#BAD4F4;}
	.st4{fill:#163560;}
	.st5{fill:#E5925A;}
	.st6{fill:#ED7D2B;}
	.st7{fill:#2A4E96;}
	.st8{fill:#F99746;}
	.st9{fill:#FFFFFF;}
	.st10{fill:#EBF3FA;}
	.st11{fill:#FFB27D;}
	.st12{fill:#F4A269;}
	.st13{fill:#9ABFE2;}
	.st14{fill:#DFEBFD;}
	.st15{fill:#B7D3F3;}
	.st16{fill:#C0D8FB;}
	.st17{fill:#D4E4F8;}
	.st18{fill:#9FC1F4;}
	.st19{fill:#B5453C;}
	.st20{fill:#EFCBAB;}
	.st21{fill:#F2F7FE;}
	.st22{fill:#C4D9E8;}
	.st23{fill:#DFEBF5;}
	.st24{fill:#F48C7F;}
	.st25{fill:#B1EFDF;}
	.st26{fill:#50BFA5;}
	.st27{fill:#EFEFEF;}
	.st28{fill:#07345A;}
	.st29{fill:#F7CC7F;}
</style>
<path class="st0" d="M2709.6,1702.7c0,0,324.8-395.4,166.1-802.5c-103.5-265.3-491.7-410.7-710.7-265.3
	c-93.3,61.9-392.6,2.1-552.5-254.3C1301.8-117.6,217.9,184.9,415.2,949.8c95.5,370.2-290.6,383.6-93.9,753.6L2709.6,1702.7z"/>
<g>
	<g>
		<path class="st1" d="M1428.5,1698.9l0.8,0c6.9-0.1,12.2-5.7,11.5-12.2l-45.8-457.5l-40,3.6l65.8,459.9
			C1421.4,1696.3,1424.7,1699,1428.5,1698.9z"/>
	</g>
	<g>
		<path class="st2" d="M987.5,1698.9l-0.8,0c-6.9-0.1-12.2-5.7-11.5-12.2l45.8-457.5l40,3.6l-65.8,459.9
			C994.6,1696.3,991.3,1699,987.5,1698.9z"/>
	</g>
	<g>
		<path class="st3" d="M1751.7,1698.9l0.8,0c6.9-0.1,12.2-5.7,11.5-12.2l-45.8-457.5l-40,3.6l65.8,459.9
			C1744.6,1696.3,1747.9,1699,1751.7,1698.9z"/>
	</g>
	<path class="st3" d="M1001.1,1162.7l-81.3-401.5c-10.4-54.4,34.6-104.1,93.1-102.7l156.8,3.6c54.1,1.2,101.1,37.4,116.2,89.4
		l119,411.3H1001.1z"/>
	<path class="st1" d="M1050.3,1162.7L969,761.1c-10.4-54.4,34.6-104.1,93.1-102.7l156.8,3.6c54.1,1.2,101.1,37.4,116.2,89.4
		l119,411.3H1050.3z"/>
	<path class="st2" d="M1023.8,1235.9h620.4c12.5,0,22.7-10.2,22.7-22.7v-27.9c0-12.5-10.2-22.7-22.7-22.7h-643.1v50.6
		C1001.1,1225.7,1011.3,1235.9,1023.8,1235.9z"/>
	<path class="st1" d="M1314.9,1235.9h395.5c10,0,18.3-8.2,18.3-18.3v-36.7c0-10-8.2-18.3-18.3-18.3h-395.5c-10,0-18.3,8.2-18.3,18.3
		v36.7C1296.7,1227.7,1304.9,1235.9,1314.9,1235.9z"/>
</g>
<path class="st4" d="M1593.7,451.6c-19.2-23.4-54.8-29.8-54.8-29.8c-70.2-59-131,24.9-143,55.7c-12,30.8-19.3,83-70,107.9
	c-90.1,44.1,7.7,119.5,7.7,119.5c40.9-90.2,231.4,70.7,222.6,77.8C1734.3,861.4,1637.3,504.9,1593.7,451.6z"/>
<path class="st5" d="M1433.1,721.9c0,0,33.1,59.6,79.6,109c24.5,26.1,52.8,49.4,81.8,59.5c14.2,5,28.5,6.8,42.7,4.3
	c9.1-1.6,5.1-55.1-7.5-95.8c-16.6-53.6-68.3-186.8-68.3-186.8l-29.6,12.6c0,0,41.1,167.7,36.2,168.4l-43.4-109.9L1433.1,721.9z"/>
<path class="st6" d="M1369.8,993.6c0,0,329.9-5.2,373.9,22.7c44,28-44,475-44,475s-85.3,2.7-92.1-19.9c0,0,15.3-209.4,1.9-245.6
	s-5.1-86.3-5.1-86.3s-166.9,25.5-219.9,12.9C1331.5,1139.9,1369.8,993.6,1369.8,993.6z"/>
<path class="st4" d="M1681.6,1468.6c0,0-18.8,50.3-14.8,68.9c4,18.6-2.4,54.8,5.2,71s21.3,39.7,8.2,45.6c-5,2.3-62.7-42.6-66-55.8
	c-3.3-13.2-5.9-52.2-16.9-73.4s-1.8-38.3,14.2-46c16-7.8,38.3-50.4,38.3-50.4L1681.6,1468.6z"/>
<path class="st7" d="M1737.7,1546.6c0,0,18.1,50.5,33.2,62.2c15.1,11.7,33.5,43.4,49.8,50.9c16.3,7.4,41.8,16.6,35.7,29.6
	c-2.3,4.9-75.4,8-86.4,0c-11.1-8-38.2-36.1-60.3-45.1s-26-28.1-18.9-44.3c7.2-16.3-3.3-63.2-3.3-63.2L1737.7,1546.6z"/>
<path class="st8" d="M1182.8,981.9c0,0,391.5,61.3,421.6,96.1c30.2,34.8,149.6,488.5,149.6,488.5s-34.9,19.6-66.6,1.5
	c0,0-90.9-153.8-131.1-202c-40.2-48.2-55.6-197.5-62.2-199c-6.6-1.5-217.3,25.4-294.9-25.9C1153.4,1110.8,1182.8,981.9,1182.8,981.9
	z"/>
<path class="st9" d="M1317.9,655.7c23.1-17.4,92.6-36.6,136.1-17c20.6,9.3,51.8,21.4,70.5,44.6c20.2,25.1,43.4,109.9,43.4,109.9
	c-7.6,44.7-43.1,50.1-43.1,50.1l0,0c20.8,78.6-77.2,58.1-70.8,101.7c11,76.1-60.1,116-98.9,133.8c-50.8,23.2-193.4,52.5-193.6,0
	C1160.9,839.8,1251.5,705.7,1317.9,655.7z"/>
<path class="st10" d="M1325.8,740.5c0,0,25.7,138.9,95.4,179.6h65.6l-69.2-86.5L1325.8,740.5z"/>
<g>
	<path class="st5" d="M1559.1,626.2c0,0,21.3-25.4,25-33.1c3.7-7.7-3.3-40.8-11.9-40.6c-5.5,0.1-12.2,20.2-18.2,27.5
		c-6,7.3-32,17.7-21,48.3C1534.2,631.8,1559.1,626.2,1559.1,626.2z"/>
</g>
<g>
	<path class="st11" d="M1504.9,676.9c6,9-1.3,34.3-35.4,26.4c-22.4-5.2-65.9-41.4-58.1-59.9c3.7-8.8,25.2-29.4,38.6-83.1l3.9,1.9
		l65.6,31.3c0,0-7.1,21.3-12.4,41.8C1502.8,652.4,1502.5,673.2,1504.9,676.9z"/>
	<path class="st12" d="M1519.6,593.4c0,0-7.1,21.3-12.4,41.8c-38.4-10.9-49.8-51.4-53.2-73.1L1519.6,593.4z"/>
	<path class="st11" d="M1556.9,605.1c0,0-91.9,21.3-104.3-36.1c-12.4-57.4-32.6-93.4,25.5-109.4c58.2-16,74.3,3.4,83.1,21.6
		C1570.1,499.3,1580.5,598.1,1556.9,605.1z"/>
	<path class="st4" d="M1519.9,449.2c0,0-0.6,66.1-49.3,98.2c-28.5,18.8-29.8,38-29.8,38s-16.9-56.6-19.5-99.1
		C1421.2,486.2,1493.9,421.2,1519.9,449.2z"/>
	<path class="st4" d="M1514.1,460.8c0,0,27.2,9,39.3,19c17.9,14.8,22.6,63,20.4,75c0,0,4.9-83.7-22.1-105
		C1523.1,427.2,1514.1,460.8,1514.1,460.8z"/>
</g>
<path class="st11" d="M1325.8,740.5c9.4,22.3,20.2,43.3,31.7,62.3c43.9,72.5,97.5,116.3,116.9,95.9c5.4-5.6,18.9-13.9,4.7-44.2
	c-10.9-23.5-24.4-52.8-37.7-81.7c-27.4-59.5-53.6-117.1-53.6-117.1C1379.4,655.7,1291.6,658.8,1325.8,740.5z"/>
<path class="st11" d="M1417.6,833.6c3-1.8,168.4,38.4,219.6,50.9c9.4,2.3,15,3.7,15,3.7v19.3c0,0-171.1,8-197.9-4.2
	s-52.2-40.8-52.2-40.8L1417.6,833.6z"/>
<path class="st9" d="M1325.8,740.5c9.4,22.3,20.2,43.3,31.7,62.3c35.7-4.6,68.7-21.3,83.9-30c-27.4-59.5-53.6-117.1-53.6-117.1
	C1379.4,655.7,1291.6,658.8,1325.8,740.5z"/>
<g>
	<path class="st6" d="M1953,907.4h-183.7l0,0c0-8.1,6.6-14.6,14.6-14.6H1953V907.4z"/>
	<polygon class="st6" points="1952.5,707.4 2236.5,707.4 2168.4,907.4 1882.5,907.4 	"/>
	<polygon class="st8" points="2240.7,707.4 2172.6,907.4 1886.7,907.4 1956.7,707.4 	"/>
	<path class="st9" d="M2087.6,805.6c-1.8,7.6-9.4,13.8-17,13.8c-7.6,0-12.4-6.2-10.6-13.8c1.8-7.6,9.4-13.8,17-13.8
		C2084.6,791.7,2089.4,797.9,2087.6,805.6z"/>
</g>
<g>
	<path class="st13" d="M892.5,1235.4v11.6c0,4.1-1.3,7.4-2.9,7.4H464.6c-1.6,0-2.9-3.3-2.9-7.4v-11.6c0-4.1,1.3-7.4,2.9-7.4h424.9
		C891.2,1228,892.5,1231.3,892.5,1235.4z"/>
	<path class="st3" d="M892.5,1235.4v11.6c0,4.1-1.2,7.4-2.7,7.4H552.5c-1.5,0-2.7-3.3-2.7-7.4v-11.6c0-4.1,1.2-7.4,2.7-7.4h337.4
		C891.3,1228,892.5,1231.3,892.5,1235.4z"/>
	<rect x="483.3" y="1254.4" class="st2" width="301.7" height="439.7"/>
	<rect x="567.8" y="1254.4" class="st14" width="301.7" height="439.7"/>
	<g>
		<g>
			<path class="st15" d="M853.3,1669.9H584v-403h269.3V1669.9z M586.9,1667h263.4v-397.2H586.9V1667z"/>
		</g>
		<g>
			<rect x="585.5" y="1400.2" class="st15" width="266.4" height="2.9"/>
		</g>
		<g>
			<rect x="585.5" y="1536.1" class="st15" width="266.4" height="2.9"/>
		</g>
		<path class="st15" d="M746,1292.8h-49.4c-2.4,0-4.4-2-4.4-4.4l0,0c0-2.4,2-4.4,4.4-4.4H746c2.4,0,4.4,2,4.4,4.4l0,0
			C750.3,1290.9,748.4,1292.8,746,1292.8z"/>
		<path class="st15" d="M746,1425.8h-49.4c-2.4,0-4.4-2-4.4-4.4l0,0c0-2.4,2-4.4,4.4-4.4H746c2.4,0,4.4,2,4.4,4.4l0,0
			C750.3,1423.8,748.4,1425.8,746,1425.8z"/>
		<path class="st15" d="M746,1564.3h-49.4c-2.4,0-4.4-2-4.4-4.4l0,0c0-2.4,2-4.4,4.4-4.4H746c2.4,0,4.4,2,4.4,4.4l0,0
			C750.3,1562.4,748.4,1564.3,746,1564.3z"/>
	</g>
</g>
<g>
	<path class="st16" d="M956.2,481.8h172.6c7.9,0,14.4-6.5,14.4-14.4V300.8c0-7.9-6.5-14.4-14.4-14.4H956.2
		c-7.9,0-14.4,6.5-14.4,14.4v166.6C941.8,475.3,948.3,481.8,956.2,481.8z"/>
	<path class="st14" d="M963.7,473.3h157.6c7.2,0,13.2-5.9,13.2-13.2V308c0-7.2-5.9-13.2-13.2-13.2H963.7c-7.2,0-13.2,5.9-13.2,13.2
		v152.1C950.5,467.4,956.5,473.3,963.7,473.3z"/>
	<g>
		<g>
			<path class="st15" d="M1046.7,312.7c0-2.3-1.9-4.2-4.2-4.2c-2.3,0-4.2,1.9-4.2,4.2s1.9,4.2,4.2,4.2
				C1044.8,316.9,1046.7,315,1046.7,312.7z"/>
			<path class="st15" d="M1013,318.6c-1.1-2-3.7-2.7-5.7-1.6c-2,1.1-2.7,3.7-1.6,5.7c1.1,2,3.7,2.7,5.7,1.6
				C1013.4,323.1,1014.1,320.6,1013,318.6z"/>
			<path class="st15" d="M984.2,341.5c-1.9-1.2-4.5-0.7-5.8,1.2s-0.7,4.5,1.2,5.8c1.9,1.2,4.5,0.7,5.8-1.2
				C986.7,345.3,986.1,342.7,984.2,341.5z"/>
			<path class="st15" d="M969.9,377c-2.3,0-4.2,1.9-4.2,4.2s1.9,4.2,4.2,4.2c2.3,0,4.2-1.9,4.2-4.2S972.2,377,969.9,377z"/>
			<path class="st15" d="M977.2,418.1c-1.6,1.6-1.6,4.3,0,5.9c1.6,1.6,4.3,1.6,5.9,0c1.6-1.6,1.6-4.3,0-5.9
				C981.5,416.5,978.8,416.5,977.2,418.1z"/>
			<path class="st15" d="M1003.4,444.4c-1.6,1.6-1.6,4.3,0,5.9c1.6,1.6,4.3,1.6,5.9,0c1.6-1.6,1.6-4.3,0-5.9
				C1007.7,442.8,1005,442.8,1003.4,444.4z"/>
			<path class="st15" d="M1046.7,457.9c0-2.3-1.9-4.2-4.2-4.2c-2.3,0-4.2,1.9-4.2,4.2s1.9,4.2,4.2,4.2
				C1044.8,462.1,1046.7,460.2,1046.7,457.9z"/>
		</g>
		<g>
			<path class="st15" d="M1072.1,318.6c1.1-2,3.7-2.7,5.7-1.6c2,1.1,2.7,3.7,1.6,5.7c-1.1,2-3.7,2.7-5.7,1.6
				C1071.8,323.1,1071,320.6,1072.1,318.6z"/>
			<path class="st15" d="M1101,341.5c1.9-1.2,4.5-0.7,5.8,1.2s0.7,4.5-1.2,5.8c-1.9,1.2-4.5,0.7-5.8-1.2
				C1098.5,345.3,1099,342.7,1101,341.5z"/>
			<path class="st15" d="M1115.3,377c2.3,0,4.2,1.9,4.2,4.2s-1.9,4.2-4.2,4.2c-2.3,0-4.2-1.9-4.2-4.2S1113,377,1115.3,377z"/>
			<path class="st15" d="M1108,418.1c1.6,1.6,1.6,4.3,0,5.9c-1.6,1.6-4.3,1.6-5.9,0c-1.6-1.6-1.6-4.3,0-5.9
				C1103.7,416.5,1106.3,416.5,1108,418.1z"/>
			<path class="st15" d="M1081.8,444.4c1.6,1.6,1.6,4.3,0,5.9c-1.6,1.6-4.3,1.6-5.9,0c-1.6-1.6-1.6-4.3,0-5.9
				C1077.5,442.8,1080.2,442.8,1081.8,444.4z"/>
		</g>
	</g>
	<g>
		<path class="st15" d="M1043.6,381.1c0-2.3-1.9-4.2-4.2-4.2c-2.3,0-4.2,1.9-4.2,4.2s1.9,4.2,4.2,4.2
			C1041.8,385.3,1043.6,383.4,1043.6,381.1z"/>
		<g>
			<rect x="1038.9" y="329" class="st15" width="1.1" height="52.1"/>
		</g>
		<g>
			
				<rect x="1024.5" y="352.6" transform="matrix(0.6175 -0.7866 0.7866 0.6175 101.3061 948.7567)" class="st15" width="3.4" height="35.1"/>
		</g>
	</g>
</g>
<g>
	<g>
		<path class="st2" d="M2374.5,1386.2c0,0-49.4-57.7-3-94.3c0,0,33.9-20.5,61.5-18.9c0,0-39.2,65.7-26.5,72.2
			c12.7,6.5,38.4-76.3,38.4-76.3s77.1-7.5,101.9,4.4c0,0-65.9,54-52,57.2c13.9,3.2,85.1-49.7,85.1-49.7s71.8,12.2,68,56
			c-3.8,43.8-28.6,57.3-39.4,56.1s-74.5-25.4-75.8-16.5c-1.4,8.9,36.9,38,63.7,39.4c0,0-50.6,55.8-84.2,39.7
			c-33.6-16.1-36.5-41.6-57.5-51.2c-21-9.6-38.9-9.6-30.2,0.2c8.7,9.8,46.6,19.3,58.6,40.5c12,21.2,22.7,35.5-12.1,30.3
			c-34.8-5.2-91.4-30.7-93.8-59.9C2374.5,1386.2,2374.5,1386.2,2374.5,1386.2z"/>
		<g>
			<path class="st2" d="M2612.6,1338c0,0-195-7.5-238,48.2c0,0-9.5,28.5-38.8,54.5l-4.6,12.4c0,0,33.8-35.6,45.9-37.8
				C2377,1415.4,2358.1,1346.3,2612.6,1338z"/>
			<path class="st2" d="M2335.7,1440.7c0,0-41.8,30.9-44.8,86.2l7.6,0.7c0,0,13.4-57.2,37.5-79.5
				C2360.2,1425.7,2335.7,1440.7,2335.7,1440.7z"/>
		</g>
	</g>
	<g>
		<path class="st2" d="M2201.7,1313.6c0,0,78.7-44,42-103.8c0,0-29.4-36.7-60.8-46.1c0,0,16.8,89.1,0,91.2
			c-16.8,2.1-11.5-100.7-11.5-100.7s-82.9-39.9-115.4-36.7c0,0,51.4,87,34.6,85c-16.8-2.1-74.5-90.2-74.5-90.2s-85-15.7-98.6,34.6
			c-13.6,50.3,8.4,75.5,21,78.7c12.6,3.1,93.3,2.1,91.2,12.6c-2.1,10.5-56.6,27.3-87,17.8c0,0,33.6,82.9,77.6,78.7
			c44-4.2,57.7-31.5,85-33.6c27.3-2.1,47.2,5.2,33.6,12.6c-13.6,7.3-59.8,2.4-81.8,21.1c-22,18.7-39.9,30.3,1,38.7
			c40.9,8.4,114.3,3.1,129-28.3S2201.7,1313.6,2201.7,1313.6z"/>
		<g>
			<path class="st2" d="M1956.2,1162.6c0,0,220.2,71.3,245.4,151c0,0-1,35.7,21,76.6v15.7c0,0-23.1-53.5-35.7-60.8
				C2187,1345.1,2236.3,1275.9,1956.2,1162.6z"/>
			<path class="st2" d="M2222.6,1390.2c0,0,34,51.6,14.6,114.4l-8.7-2.3c0,0,8.5-69.2-9.3-103.9
				C2201.4,1363.5,2222.6,1390.2,2222.6,1390.2z"/>
		</g>
	</g>
	<g>
		<path class="st17" d="M2326.8,1252.9c0,0-103.7-58.1-55.3-136.9c0,0,38.7-48.4,80.2-60.8c0,0-22.1,117.5,0,120.3
			c22.1,2.8,15.2-132.7,15.2-132.7s109.2-52.5,152.1-48.4c0,0-67.7,114.7-45.6,112c22.1-2.8,98.2-118.9,98.2-118.9
			s112-20.7,130,45.6c18,66.4-11.1,99.5-27.6,103.7c-16.6,4.1-123,2.8-120.3,16.6c2.8,13.8,74.7,35.9,114.7,23.5
			c0,0-44.2,109.2-102.3,103.7c-58.1-5.5-76-41.5-112-44.2c-35.9-2.8-62.2,6.9-44.2,16.6c18,9.7,78.8,3.2,107.8,27.9
			c29,24.7,52.5,39.9-1.4,50.9c-53.9,11.1-150.7,4.1-170-37.3C2326.8,1252.9,2326.8,1252.9,2326.8,1252.9z"/>
		<g>
			<path class="st17" d="M2650.3,1053.8c0,0-290.3,94-323.5,199.1c0,0,1.4,47-27.6,100.9v20.7c0,0,30.4-70.5,47-80.2
				C2346.2,1294.4,2281.2,1203.1,2650.3,1053.8z"/>
			<path class="st17" d="M2299.1,1353.8c0,0-44.8,68-19.2,150.8l11.5-3.1c0,0-11.2-91.2,12.2-137
				C2327.1,1318.6,2299.1,1353.8,2299.1,1353.8z"/>
		</g>
	</g>
	<path class="st17" d="M2323.3,1684c112.2,0,203.1-90.9,203.1-203.1h-406.2C2120.2,1593.1,2211.1,1684,2323.3,1684z"/>
	<path class="st17" d="M2529.2,1694.4h-411.8l0,0c0-13.8,11.2-25.1,25.1-25.1h361.7C2518,1669.3,2529.2,1680.5,2529.2,1694.4
		L2529.2,1694.4z"/>
	<rect x="2113.5" y="1480.9" class="st18" width="417.5" height="6.2"/>
</g>
<g>
	<path class="st7" d="M2242.1,952.5h-955.9c-9.5,0-17.1-7.7-17.1-17.1v-10.7c0-9.5,7.7-17.1,17.1-17.1h955.9
		c9.5,0,17.1,7.7,17.1,17.1v10.7C2259.2,944.8,2251.6,952.5,2242.1,952.5z"/>
	<g>
		<path class="st7" d="M2230,1693.9l0.5-0.1c6.4-0.8,10.9-6.5,10.1-12.7l-97.1-751.2l-54.4,1.6l130.5,754.9
			C2220.4,1691.2,2225,1694.6,2230,1693.9z"/>
	</g>
	<g>
		<path class="st7" d="M1282.6,1693.9l-0.5-0.1c-6.4-0.8-10.9-6.5-10.1-12.7l97.1-751.2l54.4,1.6L1293,1686.4
			C1292.2,1691.2,1287.6,1694.6,1282.6,1693.9z"/>
	</g>
</g>
<g>
	<g>
		
			<rect x="676.3" y="1042.9" transform="matrix(-0.9873 -0.1586 0.1586 -0.9873 1179.3436 2314.1257)" class="st19" width="11.4" height="134.1"/>
		<polygon class="st20" points="696.4,1020.5 698.3,1044.7 687,1042.9 		"/>
	</g>
	<g>
		
			<rect x="577.5" y="1054" transform="matrix(-0.9832 0.1827 -0.1827 -0.9832 1361.2788 2116.6821)" class="st19" width="11.4" height="134.1"/>
		<polygon class="st20" points="566.6,1031.9 576.5,1054.1 565.3,1056.2 		"/>
	</g>
	<g>
		
			<rect x="591.6" y="1015.3" transform="matrix(-0.9832 0.1826 -0.1826 -0.9832 1382.261 2037.4548)" class="st19" width="11.4" height="134.1"/>
		<polygon class="st20" points="580.8,993.2 590.7,1015.4 579.5,1017.5 		"/>
	</g>
	<g>
		
			<rect x="566.5" y="1098.8" transform="matrix(-1 -4.489044e-11 4.489044e-11 -1 1222.634 2326.7764)" class="st6" width="89.6" height="129.2"/>
		
			<rect x="611.3" y="1098.8" transform="matrix(-1 -4.489044e-11 4.489044e-11 -1 1312.2668 2326.7764)" class="st8" width="89.6" height="129.2"/>
	</g>
</g>
<g>
	<path class="st9" d="M733.5,1660.4c0.9,1.9,3,12.4,6.8,21v0c2.2,5.2,5.1,9.7,8.6,11.3c9.4,4.4,25.1-3.1,25.1-3.1s27,3.1,29.6,1.9
		c2.6-1.2,5.2-41.7,5.2-41.7s-21-21.8-22.8-22.4c-1.9-0.6-17.2,7.5-19.8,7.5c-2.6,0-18-10-22.1-7.5
		C739.9,1629.9,732,1657.3,733.5,1660.4z"/>
	<path class="st21" d="M766.1,1634.9c0,0,4.7,10.6,6,11.5c1.3,0.9,13.9-19,13.9-19C784.1,1626.8,768.7,1634.9,766.1,1634.9z"/>
	<path class="st21" d="M744.3,1637.9c0,0,19.2,17.7,18.9,19.4c-0.3,1.7-20.7,13.5-21.5,13.1c-0.7-0.4,4.4-13.9,4.1-16.2
		C745.6,1651.9,744.3,1637.9,744.3,1637.9z"/>
	<path class="st21" d="M733.5,1660.4c0.9,1.9,3,12.4,6.8,21v0h0l-2.3-19.8l6-34.3C739.9,1629.9,732,1657.3,733.5,1660.4z"/>
	<path class="st21" d="M773.9,1689.7c0,0,27,3.1,29.6,1.9c2.6-1.2,5.2-41.7,5.2-41.7s-5.9,20.8-6,21.8c-0.1,1-8.4-1.2-8.4-1.2
		L773.9,1689.7z"/>
	<polygon class="st21" points="801.7,1649.8 798.8,1660.6 792.6,1660.6 797.2,1656.1 	"/>
</g>
<g>
	<path class="st9" d="M1902.3,1660.4c0.9,1.9,3,12.4,6.8,21v0c2.2,5.2,5.1,9.7,8.6,11.3c9.4,4.4,25.1-3.1,25.1-3.1s27,3.1,29.6,1.9
		c2.6-1.2,5.2-41.7,5.2-41.7s-21-21.8-22.8-22.4c-1.9-0.6-17.2,7.5-19.8,7.5c-2.6,0-18-10-22.1-7.5
		C1908.7,1629.9,1900.8,1657.3,1902.3,1660.4z"/>
	<path class="st21" d="M1934.9,1634.9c0,0,4.7,10.6,6,11.5c1.3,0.9,13.9-19,13.9-19C1952.9,1626.8,1937.5,1634.9,1934.9,1634.9z"/>
	<path class="st21" d="M1913.1,1637.9c0,0,19.2,17.7,18.9,19.4c-0.3,1.7-20.7,13.5-21.5,13.1s4.4-13.9,4.1-16.2
		S1913.1,1637.9,1913.1,1637.9z"/>
	<path class="st21" d="M1902.3,1660.4c0.9,1.9,3,12.4,6.8,21v0h0l-2.3-19.8l6-34.3C1908.7,1629.9,1900.8,1657.3,1902.3,1660.4z"/>
	<path class="st21" d="M1942.8,1689.7c0,0,27,3.1,29.6,1.9c2.6-1.2,5.2-41.7,5.2-41.7s-5.9,20.8-6,21.8c-0.1,1-8.4-1.2-8.4-1.2
		L1942.8,1689.7z"/>
	<polygon class="st21" points="1970.6,1649.8 1967.6,1660.6 1961.4,1660.6 1966,1656.1 	"/>
</g>
<g>
	<path class="st9" d="M649.2,1193.1c0.8,2,2.4,12.8,5.7,21.7v0c2,5.4,4.6,10.1,8.1,12c9.3,5,25.7-1.8,25.7-1.8s27.2,4.7,29.9,3.6
		c2.7-1.1,7.7-42.1,7.7-42.1s-20.1-23.3-21.9-24c-1.9-0.7-17.9,6.6-20.6,6.5c-2.7-0.1-17.7-11.2-22-8.9
		C657.3,1162.5,647.8,1189.9,649.2,1193.1z"/>
	<path class="st21" d="M683.7,1169c0,0,4.2,11,5.4,12c1.3,1,15.1-18.5,15.1-18.5C702.4,1161.8,686.3,1169.2,683.7,1169z"/>
	<path class="st21" d="M661.4,1170.9c0,0,18.5,19.1,18.1,20.8c-0.3,1.7-21.8,12.5-22.5,12.1c-0.7-0.5,5.2-13.9,5.1-16.2
		S661.4,1170.9,661.4,1170.9z"/>
	<path class="st21" d="M649.2,1193.1c0.8,2,2.4,12.8,5.7,21.7v0l0,0l-1.2-20.2l8-34.5C657.3,1162.5,647.8,1189.9,649.2,1193.1z"/>
	<path class="st21" d="M688.6,1225.1c0,0,27.2,4.7,29.9,3.6c2.7-1.1,7.7-42.1,7.7-42.1s-7.1,20.7-7.3,21.8s-8.5-1.7-8.5-1.7
		L688.6,1225.1z"/>
	<polygon class="st21" points="719.1,1186.2 715.4,1196.9 709.1,1196.6 714.1,1192.3 	"/>
</g>
<g>
	<path class="st9" d="M803,1202.5c0.7,1.4,1.9,8.6,4.4,14.8l0,0c1.5,3.7,3.6,6.9,6.3,8.2c7.2,3.5,19.9-0.9,19.9-0.9
		s21.1,3.5,23.2,2.8c2.1-0.7,5.9-28.3,5.9-28.3s-15.6-16-17-16.5c-1.4-0.5-13.9,4.3-16,4.1c-2.1-0.1-13.7-7.8-17.1-6.2
		C809.3,1181.8,801.9,1200.2,803,1202.5z"/>
	<path class="st22" d="M829.8,1186.6c0,0,3.2,7.5,4.2,8.2c1,0.7,11.7-12.3,11.7-12.3C844.3,1181.9,831.8,1186.7,829.8,1186.6z"/>
	<path class="st23" d="M812.5,1187.5c0,0,14.3,13.1,14.1,14.2c-0.3,1.1-16.9,8.2-17.5,7.9c-0.6-0.3,4-9.3,3.9-10.9
		C812.9,1197.2,812.5,1187.5,812.5,1187.5z"/>
	<path class="st22" d="M803,1202.5c0.7,1.4,1.9,8.6,4.4,14.8l0,0l0,0l-0.9-13.7l6.2-23.2C809.3,1181.8,801.9,1200.2,803,1202.5z"/>
	<path class="st23" d="M833.6,1224.5c0,0,21.1,3.5,23.2,2.8c2.1-0.7,5.9-28.3,5.9-28.3s-5.5,13.9-5.7,14.6c-0.1,0.7-6.6-1.3-6.6-1.3
		L833.6,1224.5z"/>
	<polygon class="st23" points="857.2,1198.6 854.4,1205.8 849.5,1205.5 853.3,1202.6 	"/>
</g>
<path class="st11" d="M1637.2,884.5c0,0,54.5-15.7,69.6-11.3c10.7,3.1,24.4,18.9,31.5,27.9c2.1,2.6,0.2,6.5-3.2,6.5
	c-9.1-0.1-23.9-0.7-31.6-4.7c-7.3-3.8-18.1,4.6-30.2,4.7c-9.3,0-21.2,0-21.2,0L1637.2,884.5z"/>
<path class="st24" d="M522.4,891.1c-2.6,20.7,19,37.2,38.1,35.9c21.2-1.4,39.2-18.8,42.3-39.7c3.4-22.6-10.2-40.6-31.2-42.3
	c-20.4-1.6-33.5,16.6-27.6,34.9c4.2,13.2,16.2,18.1,22.3,14.4c4.7-2.8,4.4-10-1.3-11.2c-2.3-0.5-4.6,0.8-5.9,2.5
	c-5-2-9.7-11.1-6.5-20.9c4.1-12.5,20-13.3,29.8-7.4c12.5,7.4,14.5,23.5,9.9,36.3c-4.8,13.4-18,24-32.3,25
	c-16.2,1.2-30.5-11.3-31.8-27.5C527.9,887.3,522.9,887.4,522.4,891.1z"/>
<g>
	<path class="st25" d="M1946.6,296.4c-96-0.6-174,46.8-174.4,105.7c-0.2,29.5,19.1,56.3,50.4,75.8l-39.5,86.7l82.4-67.1
		c23.9,7.8,51,12.2,79.8,12.4c96,0.6,174-46.8,174.4-105.7C2120,345.2,2042.5,297,1946.6,296.4z"/>
	<g>
		<path class="st26" d="M1880.1,413.3c8.5,32.3,41.6,51.6,74,43.1c32.3-8.5,51.6-41.7,43.1-74c-8.5-32.3-41.6-51.6-74-43.1
			C1890.9,347.9,1871.6,381,1880.1,413.3z"/>
		<path class="st27" d="M1972.4,398.9c4.6,17.3-5.8,35-23.1,39.6c-17.3,4.6-35-5.8-39.6-23.1L1972.4,398.9z"/>
	</g>
</g>
<path class="st28" d="M2580.3,956.3l13.3-21.6l-10.7-4.3c-2.3-0.9-3.5-3.6-2.5-6l0,0c0.9-2.3,3.6-3.5,6-2.5l12.3,5l11.9-19.4
	l-11.4-4.6c-2.3-0.9-3.5-3.6-2.5-6l0,0c0.9-2.3,3.6-3.5,6-2.5l13.1,5.3l13.8-22.3c1.2-1.9,3.5-2.7,5.6-1.8l2,0.8
	c2.6,1.1,3.7,4.2,2.2,6.6l-12.9,21l19,7.7l13.8-22.3c1.2-1.9,3.5-2.7,5.6-1.8l2.2,0.9c2.6,1.1,3.7,4.2,2.2,6.6l-12.9,21l10.7,4.3
	c2.3,0.9,3.5,3.6,2.5,6l0,0c-0.9,2.3-3.6,3.5-6,2.5l-12.3-5l-11.7,19.5l11.4,4.6c2.3,0.9,3.5,3.6,2.5,6l0,0c-0.9,2.3-3.6,3.5-6,2.5
	l-13.1-5.3l-14.1,23c-1.2,1.9-3.5,2.7-5.6,1.8l-2.3-0.9c-2.6-1.1-3.7-4.2-2.2-6.6l13.3-21.6l-19-7.7l-14.1,23
	c-1.2,1.9-3.5,2.7-5.6,1.8l-2.3-0.9C2579.9,961.9,2578.8,958.7,2580.3,956.3z M2628.6,939l11.9-19.4l-19-7.7l-11.9,19.4L2628.6,939z
	"/>
<path class="st24" d="M2301.6,496.1l13.6-30.8l-17.6-28.7c-2-3.3,0.6-7.4,4.4-7l33.5,3.5l21.8-25.6c2.5-2.9,7.2-1.7,8,2l7.1,32.9
	l31.1,12.8c3.5,1.5,3.9,6.3,0.6,8.3l-29.1,16.9l-2.6,33.5c-0.3,3.8-4.8,5.6-7.7,3.1l-25-22.5l-32.7,7.9
	C2303.2,503.4,2300.1,499.6,2301.6,496.1z"/>
<path class="st29" d="M1263.6,332.6l10.2-23.1l-13.2-21.5c-1.5-2.4,0.5-5.6,3.3-5.3l25.1,2.6l16.4-19.2c1.9-2.2,5.4-1.3,6,1.5
	l5.3,24.7l23.3,9.6c2.7,1.1,2.9,4.8,0.4,6.2l-21.8,12.7l-1.9,25.2c-0.2,2.9-3.6,4.2-5.8,2.3l-18.8-16.8l-24.5,5.9
	C1264.8,338,1262.5,335.2,1263.6,332.6z"/>
<path class="st24" d="M2296.8,1026.6l-1.6-19.1l-16.7-9.5c-1.9-1.1-1.7-3.9,0.3-4.7l17.7-7.4l3.9-18.8c0.4-2.1,3.1-2.8,4.6-1.2
	l12.5,14.5l19.1-2.1c2.2-0.2,3.7,2.1,2.5,4l-9.9,16.4l7.9,17.5c0.9,2-0.9,4.1-3,3.7l-18.7-4.4l-14.2,12.9
	C2299.6,1029.8,2297,1028.8,2296.8,1026.6z"/>
<path class="st29" d="M768.1,745.7l7.5-16.9l-9.7-15.8c-1.1-1.8,0.3-4.1,2.4-3.9l18.4,1.9l12-14.1c1.4-1.6,4-0.9,4.4,1.1l3.9,18.1
	l17.1,7.1c1.9,0.8,2.1,3.5,0.3,4.5l-16,9.3l-1.4,18.4c-0.2,2.1-2.7,3.1-4.2,1.7L789,744.8l-18,4.3
	C769,749.7,767.3,747.6,768.1,745.7z"/>
<path class="st26" d="M2501.7,742.3l7.5-16.9l-9.7-15.8c-1.1-1.8,0.3-4.1,2.4-3.9l18.4,1.9l12-14.1c1.4-1.6,4-0.9,4.4,1.1l3.9,18.1
	l17.1,7.1c1.9,0.8,2.1,3.5,0.3,4.5l-16,9.3l-1.4,18.4c-0.2,2.1-2.7,3.1-4.2,1.7l-13.8-12.4l-18,4.3
	C2502.6,746.3,2500.8,744.2,2501.7,742.3z"/>
<polygon class="st26" points="618.6,446.2 648.3,441.9 660.6,488.9 704.8,488 719.7,521.7 736.7,514.2 716.8,469.1 674.9,470 
	662.2,421.1 617.5,427.6 "/>
<polygon class="st28" points="995.7,1228.7 1018.2,1208.8 1054.2,1241.4 1090.6,1216.4 1121.5,1236.4 1131.7,1220.7 1090.3,1194 
	1055.8,1217.7 1018.3,1183.7 984.5,1213.7 "/>
<path class="st26" d="M642.7,1253.3l18.9-30.6l-15.1-6.1c-3.3-1.3-4.9-5.1-3.6-8.4l0,0c1.3-3.3,5.1-4.9,8.4-3.6l17.5,7.1l16.9-27.5
	l-16.2-6.6c-3.3-1.3-4.9-5.1-3.6-8.4l0,0c1.3-3.3,5.1-4.9,8.4-3.6l18.5,7.5l19.6-31.5c1.7-2.7,5-3.8,7.9-2.6l2.8,1.1
	c3.7,1.5,5.2,6,3.1,9.4l-18.2,29.7l26.8,10.9l19.6-31.5c1.7-2.7,5-3.8,7.9-2.6l3.1,1.3c3.7,1.5,5.2,6,3.1,9.4l-18.2,29.7l15.1,6.1
	c3.3,1.3,4.9,5.1,3.6,8.4l0,0c-1.3,3.3-5.1,4.9-8.4,3.6l-17.5-7.1l-16.6,27.6l16.2,6.6c3.3,1.3,4.9,5.1,3.6,8.4l0,0
	c-1.3,3.3-5.1,4.9-8.4,3.6l-18.5-7.5l-20,32.5c-1.7,2.7-5,3.8-7.9,2.6l-3.3-1.3c-3.7-1.5-5.2-6-3.1-9.4l18.9-30.6l-26.8-10.9
	l-20,32.5c-1.7,2.7-5,3.8-7.9,2.6l-3.3-1.3C642.1,1261.2,640.6,1256.7,642.7,1253.3z M711,1228.7l16.9-27.5l-26.8-10.9l-16.9,27.5
	L711,1228.7z"/>
</svg>
