<?xml version="1.0" encoding="iso-8859-1"?>
<svg version="1.1" id="Capa_1" xmlns="http://www.w3.org/2000/svg" xmlns:xlink="http://www.w3.org/1999/xlink" x="0px" y="0px" viewBox="0 0 512 512" fill="#666">
<path d="M138.667,490.667H53.333C23.878,490.667,0,466.789,0,437.334V352c0.086-30.134,12.052-59.018,33.301-80.384L237.803,67.115 c4.093-4.237,10.845-4.355,15.083-0.262s4.355,10.845,0.262,15.083c-0.086,0.089-0.173,0.176-0.262,0.262L48.384,286.699 C31.122,304.056,21.402,327.521,21.333,352v85.333c0,17.673,14.327,32,32,32h85.333c24.507,0.068,48.021-9.673,65.301-27.051 l267.2-267.2c25.993-26.007,25.993-68.158,0-94.165l-18.752-18.752c-26.366-25.112-67.8-25.112-94.165,0L118.635,301.782 c-7.638,7.676-11.939,18.056-11.968,28.885v42.667c0,5.891,4.776,10.667,10.667,10.667H160c10.828-0.031,21.208-4.332,28.885-11.968 l176.917-176.917c4.093-4.237,10.845-4.355,15.083-0.262c4.237,4.093,4.354,10.845,0.262,15.083 c-0.086,0.089-0.173,0.176-0.262,0.262L203.968,387.115c-11.685,11.625-27.485,18.172-43.968,18.219h-42.667 c-17.673,0-32-14.327-32-32v-42.667c0.042-16.484,6.589-32.285,18.219-43.968L343.168,47.083 c34.333-34.333,89.997-34.333,124.33-0.001c0,0,0,0,0.001,0.001l18.752,18.752c34.333,34.333,34.333,89.997,0.001,124.33 c0,0,0,0-0.001,0.001l-267.2,267.2C197.771,478.744,168.831,490.734,138.667,490.667z"/>
</svg>
