<?xml version="1.0" encoding="UTF-8" standalone="yes"?>
<!DOCTYPE svg PUBLIC "-//W3C//DTD SVG 1.1//EN" "http://www.w3.org/Graphics/SVG/1.1/DTD/svg11.dtd">

<svg width="400" height="400" viewBox="0 0 400 400" xmlns="http://www.w3.org/2000/svg" xmlns:xlink="http://www.w3.org/1999/xlink" version="1.1" baseProfile="full">
    <defs>
        <linearGradient id="105553141934880140410082025552" x1="9.042397%" x2="90.957603%" y1="78.678825%" y2="21.321178%">
            <stop offset="0%" style="stop-color:#42b3e1;stop-opacity:1.000000"></stop>
            <stop offset="100%" style="stop-color:#3ec79f;stop-opacity:1.000000"></stop>
        </linearGradient>
    </defs>
    <g transform="scale(1,-1) translate(0,-400)">
        <path d="M 1.000000 1.000000 L 401.000000 1.000000 C 401.000000 1.000000 401.000000 1.000000 401.000000 1.000000 L 401.000000 401.000000 C 401.000000 401.000000 401.000000 401.000000 401.000000 401.000000 L 1.000000 401.000000 C 1.000000 401.000000 1.000000 401.000000 1.000000 401.000000 L 1.000000 1.000000 C 1.000000 1.000000 1.000000 1.000000 1.000000 1.000000 Z" transform="scale(1.000000,1.000000) translate(-1.000000,-1.000000)" fill="url(#105553141934880140410082025552)" opacity="1.000000"></path>
        <path d="M 5.679821 10.359683 L 191.679821 9.689674 L 187.319636 5.397379 C 187.325046 5.844769 187.326030 5.920556 187.341552 7.100945 C 187.477522 17.440400 187.306673 22.751660 186.322999 28.982106 C 183.959424 43.952635 177.240083 54.445376 163.722377 60.767348 L 164.122144 60.604075 L 117.964292 76.829643 C 116.224500 77.441220 115.060326 79.084462 115.060326 80.928616 L 115.060326 93.076006 C 115.060326 94.569303 115.827192 95.957965 117.091058 96.753313 C 129.999607 104.876627 139.677674 121.265311 139.148135 141.561944 C 138.391624 170.558163 126.586174 187.165494 99.437536 188.606111 L 99.981472 188.611346 C 74.420830 186.761000 60.248881 170.690427 60.856886 143.111041 C 61.270192 123.535628 66.499626 112.310243 76.738458 102.658628 C 77.843704 101.616770 78.999404 100.590665 80.458033 99.342597 C 80.942121 98.928389 83.467162 96.792089 84.165551 96.190897 C 85.124378 95.365512 85.675821 94.163196 85.675821 92.898044 L 85.675821 80.258608 C 85.675821 78.457463 84.564534 76.843068 82.882076 76.200061 C 77.562675 74.167078 72.887655 72.877424 64.891523 71.031889 C 64.481872 70.937340 64.112079 70.852279 63.445330 70.699115 C 45.239775 66.516992 37.010703 63.419405 24.978549 54.498230 L 25.351503 54.808470 C 13.209644 43.503604 8.356624 27.990250 9.996606 6.343083 L 5.679821 10.359683 Z M 5.648519 1.670037 C 3.382276 1.678200 1.502934 3.426854 1.331734 5.686636 C -0.493857 29.783786 5.170951 47.892135 19.430074 61.168312 C 19.548517 61.278591 19.673029 61.382166 19.803028 61.478552 C 27.167019 66.938543 34.322417 70.809570 41.934869 73.675050 C 47.641351 75.823084 51.921249 76.967871 61.499831 79.168233 C 62.163813 79.320761 62.531372 79.405308 62.937285 79.498995 C 70.571119 81.260910 74.927493 82.462661 79.779864 84.317154 L 76.986119 80.258608 L 76.986119 92.898044 L 78.496389 89.605191 C 77.832848 90.176385 75.321318 92.301255 74.808555 92.739998 C 73.252697 94.071259 71.999060 95.184319 70.777910 96.335433 C 58.882701 107.548428 52.632844 120.964231 52.169208 142.923565 C 51.460538 175.069094 69.115579 195.089392 99.354062 197.278369 C 99.535087 197.291473 99.716755 197.293222 99.897999 197.283605 C 117.018035 196.375146 129.503635 189.974113 137.464040 178.775803 C 144.211378 169.283977 147.444042 156.769013 147.834881 141.788581 C 148.448284 118.277556 137.116145 99.087894 121.719296 89.398700 L 123.750028 93.076006 L 123.750028 80.928616 L 120.846062 85.027589 L 167.003914 68.802021 C 167.139793 68.754256 167.273213 68.699764 167.403680 68.638748 C 183.787169 60.976503 192.124528 47.957110 194.906382 30.337266 C 195.990416 23.471154 196.172744 17.803035 196.030503 6.986681 C 196.015037 5.810602 196.014058 5.735164 196.008703 5.292324 C 195.979867 2.907293 194.033709 0.991437 191.648519 1.000029 L 5.648519 1.670037 Z" transform="scale(1.000000,1.000000) translate(100.717125,101.186424)" fill="#ffffff" opacity="1.000000"></path>
    </g>
</svg>